<svg xmlns="http://www.w3.org/2000/svg" xmlns:xlink="http://www.w3.org/1999/xlink" width="141.971" height="217.408" viewBox="0 0 106.478 163.056"><path d="M32.804 82.837a9.216 9.216 0 0 0-9.216-9.216 9.216 9.216 0 0 0-9.216 9.216 9.216 9.216 0 0 0 9.216 9.216 9.216 9.216 0 0 0 9.216-9.216zm-9.216 0" fill="#d7e1fc"/><path stroke-width=".399" stroke-miterlimit="10" fill="none" stroke="#386af1" d="M32.804 82.837a9.216 9.216 0 0 0-9.216-9.216 9.216 9.216 0 0 0-9.216 9.216 9.216 9.216 0 0 0 9.216 9.216 9.216 9.216 0 0 0 9.216-9.216zm-9.216 0"/><symbol id="a"><path d="M.455.547C.438.663.362.732.254.732a.226.226 0 0 1-.19-.101A.51.51 0 0 1 0 .346.44.44 0 0 1 .06.088.204.204 0 0 1 .238 0C.373 0 .47.1.47.239.47.371.38.464.253.464A.191.191 0 0 1 .09.385c.001.173.057.269.158.269C.31.654.353.615.367.547h.088M.242.386C.327.386.38.327.38.232.38.143.32.078.239.078.157.078.095.146.095.237c0 .088.06.149.147.149z"/></symbol><use xlink:href="#a" transform="matrix(9.9626 0 0 -9.9626 21.247 86.493)" fill="#386af1"/><path d="M89.498 82.837a9.216 9.216 0 0 0-9.216-9.216 9.216 9.216 0 0 0-9.216 9.216 9.216 9.216 0 0 0 9.216 9.216 9.216 9.216 0 0 0 9.216-9.216zm-9.216 0" fill="#d7e1fc"/><path stroke-width=".399" stroke-miterlimit="10" fill="none" stroke="#386af1" d="M89.498 82.837a9.216 9.216 0 0 0-9.216-9.216 9.216 9.216 0 0 0-9.216 9.216 9.216 9.216 0 0 0 9.216 9.216 9.216 9.216 0 0 0 9.216-9.216zm-9.216 0"/><symbol id="b"><path d="M.189.348H.2l.037.001C.334.349.384.305.384.22.384.131.329.078.237.078.141.078.094.126.088.229H0A.3.3 0 0 1 .031.103C.067.035.137 0 .234 0c.146 0 .24.087.24.221 0 .09-.035.14-.12.169a.146.146 0 0 1 .099.147c0 .122-.081.195-.216.195C.094.732.018.654.015.503h.088a.199.199 0 0 0 .016.089c.02.039.064.063.119.063.078 0 .125-.046.125-.121 0-.05-.018-.08-.057-.096A.322.322 0 0 0 .189.423V.348z"/></symbol><use xlink:href="#b" transform="matrix(9.9626 0 0 -9.9626 77.83 86.493)" fill="#386af1"/><path d="M89.422 26.143a9.14 9.14 0 0 0-9.14-9.14 9.14 9.14 0 0 0-9.141 9.14 9.14 9.14 0 0 0 9.14 9.141 9.14 9.14 0 0 0 9.141-9.14zm-9.14 0" fill="#d7e1fc"/><path stroke-width=".399" stroke-miterlimit="10" fill="none" stroke="#386af1" d="M89.422 26.143a9.14 9.14 0 0 0-9.14-9.14 9.14 9.14 0 0 0-9.141 9.14 9.14 9.14 0 0 0 9.14 9.141 9.14 9.14 0 0 0 9.141-9.14zm-9.14 0"/><symbol id="c"><path d="M.441.732H.075L.022.346h.081c.041.049.075.066.13.066.095 0 .155-.065.155-.17C.388.14.329.078.233.078.156.078.109.117.088.197H0C.012.139.022.111.043.085A.236.236 0 0 1 .235 0c.143 0 .243.104.243.254C.478.394.385.49.249.49A.208.208 0 0 1 .118.447l.028.198h.295v.087z"/></symbol><use xlink:href="#c" transform="matrix(9.9626 0 0 -9.9626 77.86 29.708)" fill="#386af1"/><path d="M89.436 139.53a9.154 9.154 0 1 0-18.308 0 9.154 9.154 0 1 0 18.308 0zm-9.154 0" fill="#d7e1fc"/><path stroke-width=".399" stroke-miterlimit="10" fill="none" stroke="#386af1" d="M89.436 139.53a9.154 9.154 0 1 0-18.308 0 9.154 9.154 0 1 0 18.308 0zm-9.154 0"/><symbol id="d"><path d="M.472.087H.099C.108.145.14.182.227.233l.1.054c.099.054.15.127.15.214a.204.204 0 0 1-.066.152.227.227 0 0 1-.161.056C.16.709.093.677.054.617A.276.276 0 0 1 .016.463h.088a.245.245 0 0 0 .021.1.135.135 0 0 0 .122.069c.08 0 .14-.057.14-.133C.387.443.354.395.291.359L.199.307C.051.223.008.156 0 0h.472v.087z"/></symbol><use xlink:href="#d" transform="matrix(9.9626 0 0 -9.9626 77.85 143.039)" fill="#386af1"/><path stroke-width=".399" stroke-miterlimit="10" fill="none" stroke="#e05048" d="m30.246 76.18 37.489-37.49"/><path d="m73.096 33.329-6.652 3.93 1.361 1.361 1.361 1.361z" fill="#e05048"/><path stroke-width=".39899601" stroke-miterlimit="10" fill="none" stroke="#e05048" d="m73.096 33.329-6.652 3.93 1.361 1.361 1.361 1.361z"/><path d="M55.474 50.95a4.968 4.968 0 1 0-7.025 7.026 4.968 4.968 0 0 0 7.025-7.025zm-3.513 3.514" fill="#f8dcda"/><path stroke-width=".399" stroke-miterlimit="10" fill="none" stroke="#e05048" d="M55.474 50.95a4.968 4.968 0 1 0-7.025 7.026 4.968 4.968 0 0 0 7.025-7.025zm-3.513 3.514"/><symbol id="e"><path d="M.157.505V0h.088v.709H.187C.156.6.136.585 0 .568V.505h.157z"/></symbol><use xlink:href="#e" transform="scale(7.97002 -7.97002) rotate(45 12.022 4.417)" fill="#e05048"/><path stroke-width=".399" stroke-miterlimit="10" fill="none" stroke="#e05048" d="M33.003 82.837h29.459"/><path d="m70.045 82.837-7.483-1.925v3.85z" fill="#e05048"/><path stroke-width=".399" stroke-miterlimit="10" fill="none" stroke="#e05048" d="m70.045 82.837-7.483-1.925v3.85z"/><path d="M56.963 82.837a5.028 5.028 0 1 0-10.056 0 5.028 5.028 0 0 0 10.056 0zm-5.028 0" fill="#f8dcda"/><path stroke-width=".399" stroke-miterlimit="10" fill="none" stroke="#e05048" d="M56.963 82.837a5.028 5.028 0 1 0-10.056 0 5.028 5.028 0 0 0 10.056 0zm-5.028 0"/><use xlink:href="#b" transform="matrix(7.9701 0 0 -7.9701 49.974 85.762)" fill="#e05048"/><path stroke-width=".399" stroke-miterlimit="10" fill="none" stroke="#e05048" d="m30.246 89.495 37.48 37.48"/><path d="m73.087 132.336-3.93-6.653-1.362 1.361-1.36 1.362z" fill="#e05048"/><path stroke-width=".39899601" stroke-miterlimit="10" fill="none" stroke="#e05048" d="m73.087 132.336-3.93-6.653-1.362 1.361-1.36 1.362z"/><path d="M55.47 114.719a4.968 4.968 0 1 0-7.026-7.026 4.968 4.968 0 0 0 7.026 7.026zm-3.513-3.513" fill="#f8dcda"/><path stroke-width=".399" stroke-miterlimit="10" fill="none" stroke="#e05048" d="M55.47 114.719a4.968 4.968 0 1 0-7.026-7.026 4.968 4.968 0 0 0 7.026 7.026zm-3.513-3.513"/><symbol id="f"><path d="M.299.17V0h.088v.17h.105v.079H.387v.46H.322L0 .263V.17h.299m0 .079H.077l.222.31v-.31z"/></symbol><use xlink:href="#f" transform="scale(7.97002 -7.97002) rotate(-45 -13.883 -14.368)" fill="#e05048"/><path d="M91.854 19.54a4.968 4.968 0 1 0-9.936-.001 4.968 4.968 0 0 0 9.936 0zm-4.968 0" fill="#e1f4e2"/><path stroke-width=".797" stroke-miterlimit="10" fill="none" stroke="#6cc871" d="M91.854 19.54a4.968 4.968 0 1 0-9.936-.001 4.968 4.968 0 0 0 9.936 0zm-4.968 0"/><use xlink:href="#d" transform="matrix(7.9701 0 0 -7.9701 84.941 22.347)" fill="#6cc871"/><path d="M91.907 76.18a4.968 4.968 0 1 0-9.936 0 4.968 4.968 0 0 0 9.936 0zm-4.968 0" fill="#e1f4e2"/><path stroke-width=".797" stroke-miterlimit="10" fill="none" stroke="#6cc871" d="M91.907 76.18a4.968 4.968 0 1 0-9.936 0 4.968 4.968 0 0 0 9.936 0zm-4.968 0"/><use xlink:href="#e" transform="matrix(7.9701 0 0 -7.9701 85.536 78.987)" fill="#6cc871"/><path d="M91.863 132.917a4.968 4.968 0 1 0-9.936 0 4.968 4.968 0 0 0 9.936 0zm-4.968 0" fill="#e1f4e2"/><path stroke-width=".797" stroke-miterlimit="10" fill="none" stroke="#6cc871" d="M91.863 132.917a4.968 4.968 0 1 0-9.936 0 4.968 4.968 0 0 0 9.936 0zm-4.968 0"/><use xlink:href="#d" transform="matrix(7.9701 0 0 -7.9701 84.95 135.723)" fill="#6cc871"/></svg>