<svg xmlns="http://www.w3.org/2000/svg" xmlns:xlink="http://www.w3.org/1999/xlink" width="272.341" height="210.915" viewBox="0 0 204.256 158.186"><path d="M44.167 71.065h-25.81a3.985 3.985 0 0 0-3.985 3.985v8.086c0 2.2 1.785 3.985 3.985 3.985h25.81c2.2 0 3.985-1.784 3.985-3.985V75.05c0-2.2-1.785-3.985-3.985-3.985zM14.372 87.121" fill="#d7e1fc"/><path stroke-width=".399" stroke-miterlimit="10" fill="none" stroke="#386af1" d="M44.167 71.065h-25.81a3.985 3.985 0 0 0-3.985 3.985v8.086c0 2.2 1.785 3.985 3.985 3.985h25.81c2.2 0 3.985-1.784 3.985-3.985V75.05c0-2.2-1.785-3.985-3.985-3.985zM14.372 87.121"/><symbol id="a"><path d="M.455.547C.438.663.362.732.254.732a.226.226 0 0 1-.19-.101A.51.51 0 0 1 0 .346.44.44 0 0 1 .06.088.204.204 0 0 1 .238 0C.373 0 .47.1.47.239.47.371.38.464.253.464A.191.191 0 0 1 .09.385c.001.173.057.269.158.269C.31.654.353.615.367.547h.088M.242.386C.327.386.38.327.38.232.38.143.32.078.239.078.157.078.095.146.095.237c0 .088.06.149.147.149z"/></symbol><symbol id="b"><path d="M0 .251V.147h.06V.129C.06.06.047.04 0 .038V0c.07 0 .105.045.105.131v.12H0z"/></symbol><symbol id="c"><path d="M.015.185C.032.069.108 0 .216 0c.078 0 .149.038.19.101a.501.501 0 0 1 .065.285.44.44 0 0 1-.06.258.207.207 0 0 1-.179.088C.097.732 0 .632 0 .493 0 .361.09.268.218.268c.067 0 .116.024.162.079C.379.174.323.078.222.078.16.078.117.117.103.185H.015m.216.47c.082 0 .144-.068.144-.16A.142.142 0 0 0 .228.346C.143.346.09.405.09.5c0 .09.06.155.141.155z"/></symbol><symbol id="d"><path d="M.083.729H0V0h.083v.204l.081.08L.341 0h.103L.23.343l.182.181H.305L.083.302v.427z"/></symbol><symbol id="e"><path d="M.383.742V.666C.341.728.29.757.223.757.09.757 0 .641 0 .471 0 .385.023.315.066.265a.205.205 0 0 1 .15-.07c.066 0 .112.028.159.094V.262C.375.191.366.148.345.119.323.088.28.07.229.07a.155.155 0 0 0-.095.028C.115.113.107.127.102.158H.017C.026.059.103 0 .226 0c.078 0 .145.025.179.067.04.048.055.114.055.237v.438H.383M.232.68C.322.68.375.604.375.473.375.348.321.272.233.272.142.272.087.349.087.476c0 .126.056.204.145.204z"/></symbol><use xlink:href="#a" transform="matrix(9.9626 0 0 -9.9626 18.121 81.812)" fill="#386af1"/><use xlink:href="#b" transform="matrix(9.9626 0 0 -9.9626 24.099 83.048)" fill="#386af1"/><use xlink:href="#c" transform="matrix(9.9626 0 0 -9.9626 29.15 81.812)" fill="#386af1"/><use xlink:href="#d" transform="matrix(9.9626 0 0 -9.9626 34.888 81.583)" fill="#386af1"/><use xlink:href="#e" transform="matrix(9.9626 0 0 -9.9626 39.58 83.755)" fill="#386af1"/><path d="M185.9 14.371h-25.809a3.985 3.985 0 0 0-3.985 3.986v8.085a3.985 3.985 0 0 0 3.986 3.985H185.9c2.2 0 3.985-1.784 3.985-3.985v-8.085c0-2.201-1.784-3.986-3.985-3.986zm-29.794 16.056" fill="#d7e1fc"/><path stroke-width=".399" stroke-miterlimit="10" fill="none" stroke="#386af1" d="M185.9 14.371h-25.809a3.985 3.985 0 0 0-3.985 3.986v8.085a3.985 3.985 0 0 0 3.986 3.985H185.9c2.2 0 3.985-1.784 3.985-3.985v-8.085c0-2.201-1.784-3.986-3.985-3.986zm-29.794 16.056"/><symbol id="f"><path d="M.441.732H.075L.022.346h.081c.041.049.075.066.13.066.095 0 .155-.065.155-.17C.388.14.329.078.233.078.156.078.109.117.088.197H0C.012.139.022.111.043.085A.236.236 0 0 1 .235 0c.143 0 .243.104.243.254C.478.394.385.49.249.49A.208.208 0 0 1 .118.447l.028.198h.295v.087z"/></symbol><use xlink:href="#f" transform="matrix(9.9626 0 0 -9.9626 159.774 25.12)" fill="#386af1"/><use xlink:href="#b" transform="matrix(9.9626 0 0 -9.9626 165.83 26.356)" fill="#386af1"/><use xlink:href="#c" transform="matrix(9.9626 0 0 -9.9626 170.882 25.12)" fill="#386af1"/><use xlink:href="#d" transform="matrix(9.9626 0 0 -9.9626 176.62 24.891)" fill="#386af1"/><use xlink:href="#e" transform="matrix(9.9626 0 0 -9.9626 181.313 27.063)" fill="#386af1"/><path d="M185.9 127.759h-25.809a3.985 3.985 0 0 0-3.985 3.985v8.085c0 2.201 1.785 3.986 3.986 3.986H185.9c2.2 0 3.985-1.785 3.985-3.986v-8.085a3.985 3.985 0 0 0-3.985-3.985zm-29.794 16.056" fill="#d7e1fc"/><path stroke-width=".399" stroke-miterlimit="10" fill="none" stroke="#386af1" d="M185.9 127.759h-25.809a3.985 3.985 0 0 0-3.985 3.985v8.085c0 2.201 1.785 3.986 3.986 3.986H185.9c2.2 0 3.985-1.785 3.985-3.986v-8.085a3.985 3.985 0 0 0-3.985-3.985zm-29.794 16.056"/><use xlink:href="#f" transform="matrix(9.9626 0 0 -9.9626 159.774 138.505)" fill="#386af1"/><use xlink:href="#b" transform="matrix(9.9626 0 0 -9.9626 165.83 139.74)" fill="#386af1"/><use xlink:href="#a" transform="matrix(9.9626 0 0 -9.9626 170.932 138.505)" fill="#386af1"/><use xlink:href="#d" transform="matrix(9.9626 0 0 -9.9626 176.62 138.276)" fill="#386af1"/><use xlink:href="#e" transform="matrix(9.9626 0 0 -9.9626 181.313 140.448)" fill="#386af1"/><path stroke-width=".399" stroke-miterlimit="10" fill="none" stroke="#e05048" d="M48.35 79.093c47.488 0 60.07-56.694 99.153-56.694"/><path d="m155.086 22.4-7.484-1.925v3.849z" fill="#e05048"/><path stroke-width=".399" stroke-miterlimit="10" fill="none" stroke="#e05048" d="m155.086 22.4-7.484-1.925v3.849z"/><path d="M132.137 37.386H72.12a3.985 3.985 0 0 0-3.985 3.985v18.75a3.985 3.985 0 0 0 3.985 3.985h60.016c2.2 0 3.985-1.784 3.985-3.985v-18.75c0-2.2-1.784-3.985-3.985-3.985zm-64.001 26.72" fill="#f8dcda"/><path stroke-width=".399" stroke-miterlimit="10" fill="none" stroke="#e05048" d="M132.137 37.386H72.12a3.985 3.985 0 0 0-3.985 3.985v18.75a3.985 3.985 0 0 0 3.985 3.985h60.016c2.2 0 3.985-1.784 3.985-3.985v-18.75c0-2.2-1.784-3.985-3.985-3.985zm-64.001 26.72"/><symbol id="g"><path d="M.443 0h.15v.729h-.15V.233L.154.729H0V0h.15v.504L.443 0z"/></symbol><symbol id="h"><path d="M.502.249a.452.452 0 0 1-.02.166.237.237 0 0 1-.232.157C.095.572 0 .46 0 .279 0 .106.094 0 .247 0c.121 0 .219.069.25.175H.359C.342.132.303.107.252.107A.106.106 0 0 0 .16.154C.147.174.142.198.14.249h.362m-.36.093c.009.082.044.123.106.123A.107.107 0 0 0 .335.42.154.154 0 0 0 .357.342H.142z"/></symbol><symbol id="i"><path d="M.14.758H0V0h.14v.282A.16.16 0 0 1 .29.194c.13 0 .226.122.226.286a.36.36 0 0 1-.058.202.213.213 0 0 1-.168.085.16.16 0 0 1-.15-.089v.08M.258.65C.329.65.376.581.376.478.376.38.327.311.258.311.188.311.14.379.14.48s.048.17.118.17z"/></symbol><symbol id="j"><path d="M.496.04C.471.063.464.078.464.106v.3c0 .11-.075.166-.221.166C.097.572.021.51.012.385h.135c.007.056.03.074.099.074C.3.459.327.441.327.405A.047.047 0 0 0 .303.363C.284.353.284.353.215.342L.159.332C.052.314 0 .259 0 .162 0 .116.013.078.038.051A.178.178 0 0 1 .164 0c.06 0 .115.026.164.077 0-.028.003-.038.016-.054h.152V.04m-.169.2C.327.159.287.113.216.113.169.113.14.138.14.178.14.22.162.24.22.252l.048.009a.176.176 0 0 1 .059.017V.24z"/></symbol><symbol id="k"><path d="M.476.389C.474.503.386.572.241.572.104.572.019.503.019.392a.13.13 0 0 1 .03-.088C.068.285.085.276.137.259L.304.207C.339.196.351.185.351.163.351.13.312.11.247.11a.154.154 0 0 0-.083.019C.149.14.143.151.137.18H0C.004.062.091 0 .255 0 .33 0 .387.016.427.048.467.08.491.13.491.183c0 .07-.035.115-.106.136L.208.37C.169.382.159.39.159.412c0 .03.032.05.081.05.067 0 .1-.024.101-.073h.135z"/></symbol><symbol id="l"><path d="M.299.529H.216v.053c0 .028.012.042.038.042a.27.27 0 0 0 .04-.003v.105a1.225 1.225 0 0 1-.08.003C.121.729.076.685.076.594V.529H0V.436h.076V0h.14v.436h.083v.093z"/></symbol><symbol id="m"><path d="M.488.361C.478.493.39.572.255.572.094.572 0 .466 0 .282 0 .104.093 0 .253 0c.131 0 .222.081.235.21H.354C.336.14.308.113.254.113.183.113.14.177.14.282c0 .051.01.099.027.131.016.03.047.046.087.046.057 0 .084-.027.1-.098h.134z"/></symbol><symbol id="n"><path d="M.287.552H.209v.145h-.14V.552H0V.459h.069V.127C.069.042.114 0 .206 0c.031 0 .056.003.081.011v.098A.211.211 0 0 0 .255.106C.218.106.209.117.209.165v.294h.078v.093z"/></symbol><symbol id="o"><path d="M0 .54V0h.14v.287C.14.369.181.41.263.41A.247.247 0 0 0 .307.406v.142L.29.549C.226.549.17.507.14.434V.54H0z"/></symbol><symbol id="p"><path d="M.14.729H0V0h.14v.729z"/></symbol><symbol id="q"><path d="M0 .26V.135h.08C.082.085.056.056 0 .046V0a.155.155 0 0 1 .09.034c.032.027.045.06.045.117V.26H0z"/></symbol><symbol id="r"><path d="M.266.572C.101.572 0 .463 0 .286 0 .108.101 0 .267 0c.164 0 .267.109.267.282 0 .183-.099.29-.268.29M.267.459C.344.459.394.39.394.284.394.183.342.113.267.113.191.113.14.183.14.286c0 .103.051.173.127.173z"/></symbol><symbol id="s"><path d="M0 .752V.023h.14v.055A.162.162 0 0 1 .289 0c.129 0 .227.123.227.286a.361.361 0 0 1-.058.199.21.21 0 0 1-.169.087A.162.162 0 0 1 .14.493v.259H0M.258.455c.069 0 .118-.07.118-.17C.376.187.327.117.258.117.187.117.14.185.14.288c0 .098.048.167.118.167z"/></symbol><symbol id="t"><path d="M.206.758h-.14V.155C.066.124.055.113.025.113A.077.077 0 0 0 0 .117V.005A.912.912 0 0 1 .083 0C.17 0 .206.036.206.124v.634m0 .189h-.14V.822h.14v.125z"/></symbol><symbol id="u"><path d="M.475.571a.2.2 0 0 1-.034.095.216.216 0 0 1-.179.081.228.228 0 0 1-.203-.11A.5.5 0 0 1 0 .36C0 .238.015.162.051.105A.23.23 0 0 1 .25 0c.141 0 .237.106.237.26 0 .136-.084.23-.206.23A.175.175 0 0 1 .14.427c.003.075.003.075.009.105.013.064.053.102.109.102.045 0 .069-.018.087-.063h.13M.247.38C.312.38.354.329.354.251.354.175.308.12.246.12.182.12.138.173.138.248c0 .078.044.132.109.132z"/></symbol><use xlink:href="#g" transform="matrix(4.9813 0 0 -4.9813 74.532 44.341)" fill="#e05048"/><use xlink:href="#h" transform="matrix(4.9813 0 0 -4.9813 77.9 44.456)" fill="#e05048"/><use xlink:href="#i" transform="matrix(4.9813 0 0 -4.9813 82.233 45.427)" fill="#e05048"/><use xlink:href="#j" transform="matrix(4.9813 0 0 -4.9813 85.127 44.456)" fill="#e05048"/><use xlink:href="#k" transform="matrix(4.9813 0 0 -4.9813 87.902 44.456)" fill="#e05048"/><use xlink:href="#j" transform="matrix(4.9813 0 0 -4.9813 92.051 44.456)" fill="#e05048"/><use xlink:href="#l" transform="matrix(4.9813 0 0 -4.9813 94.75 44.341)" fill="#e05048"/><use xlink:href="#l" transform="matrix(4.9813 0 0 -4.9813 96.41 44.341)" fill="#e05048"/><use xlink:href="#h" transform="matrix(4.9813 0 0 -4.9813 98.058 44.456)" fill="#e05048"/><use xlink:href="#m" transform="matrix(4.9813 0 0 -4.9813 100.888 44.456)" fill="#e05048"/><use xlink:href="#n" transform="matrix(4.9813 0 0 -4.9813 103.558 44.456)" fill="#e05048"/><use xlink:href="#h" transform="matrix(4.9813 0 0 -4.9813 105.256 44.456)" fill="#e05048"/><use xlink:href="#o" transform="matrix(4.9813 0 0 -4.9813 108.23 44.341)" fill="#e05048"/><use xlink:href="#p" transform="matrix(4.9813 0 0 -4.9813 111.573 44.341)" fill="#e05048"/><use xlink:href="#q" transform="matrix(4.9813 0 0 -4.9813 112.952 42.005)" fill="#e05048"/><use xlink:href="#r" transform="matrix(4.9813 0 0 -4.9813 114.183 44.456)" fill="#e05048"/><use xlink:href="#s" transform="matrix(4.9813 0 0 -4.9813 117.346 44.456)" fill="#e05048"/><use xlink:href="#t" transform="matrix(4.9813 0 0 -4.9813 120.116 45.427)" fill="#e05048"/><use xlink:href="#h" transform="matrix(4.9813 0 0 -4.9813 121.59 44.456)" fill="#e05048"/><use xlink:href="#n" transform="matrix(4.9813 0 0 -4.9813 124.32 44.456)" fill="#e05048"/><use xlink:href="#u" transform="matrix(4.9813 0 0 -4.9813 127.453 44.456)" fill="#e05048"/><symbol id="v"><path d="M.351.764C.142.764 0 .61 0 .382S.142 0 .352 0C.44 0 .519.027.578.077c.079.067.126.18.126.299 0 .235-.139.388-.353.388m0-.082c.158 0 .26-.12.26-.304C.611.202.506.082.352.082c-.155 0-.259.12-.259.3s.104.3.258.3z"/></symbol><symbol id="w"><path d="M0 .524V0h.084v.289c0 .107.056.177.142.177.066 0 .108-.04.108-.103V0h.083v.396c0 .087-.065.143-.166.143C.173.539.123.509.077.436v.088H0z"/></symbol><symbol id="x"><path d="M.493.072.475.07C.446.07.43.085.43.111v.308C.43.512.362.562.233.562.157.562.094.54.059.501.035.474.025.444.023.392h.084C.114.456.152.485.23.485.305.485.347.457.347.407V.385C.347.35.326.335.26.327A.598.598 0 0 1 .092.295C.031.27 0 .223 0 .155 0 .06.066 0 .172 0 .238 0 .291.023.35.077.356.024.382 0 .436 0c.017 0 .03.002.057.009v.063M.347.188C.347.16.339.143.314.12A.177.177 0 0 0 .19.073C.125.073.087.104.087.157c0 .055.037.083.126.096a.415.415 0 0 1 .134.029V.188z"/></symbol><symbol id="y"><path d="M.088.742v-.6C.088.09.071.073.02.073L0 .074V.003C.01.001.015 0 .028 0c.094 0 .143.038.143.109v.633H.088m.083.205H.088V.842h.083v.105z"/></symbol><symbol id="z"><path d="M.236.562C.089.562 0 .457 0 .281 0 .105.088 0 .237 0c.147 0 .237.105.237.277 0 .181-.087.285-.238.285M.237.485c.094 0 .15-.077.15-.207C.387.155.329.077.237.077c-.093 0-.15.077-.15.204 0 .126.057.204.15.204z"/></symbol><symbol id="A"><path d="M.417.023v.524H.334V.25C.334.143.278.073.191.073c-.066 0-.108.04-.108.103v.371H0V.143C0 .056.065 0 .167 0c.077 0 .126.027.175.096V.023h.075z"/></symbol><symbol id="B"><path d="M.24.547H.154v.144H.071V.547H0V.479h.071V.083C.071.03.107 0 .172 0c.02 0 .04.002.068.007v.07A.154.154 0 0 0 .2.073C.164.073.154.083.154.12v.359H.24v.068z"/></symbol><symbol id="C"><path d="M.473.257c0 .08-.006.128-.021.167A.22.22 0 0 1 .24.562C.094.562 0 .45 0 .278S.091 0 .238 0c.12 0 .203.068.224.182H.378C.355.113.308.077.241.077a.145.145 0 0 0-.126.068c-.02.03-.027.06-.028.112h.386M.089.325c.007.097.066.16.15.16.082 0 .145-.068.145-.154L.383.325H.089z"/></symbol><symbol id="D"><path d="M.232.732A.202.202 0 0 1 .069.654C.023.592 0 .497 0 .366 0 .127.08 0 .232 0c.15 0 .232.127.232.36 0 .138-.022.23-.069.294a.198.198 0 0 1-.163.078m0-.078C.327.654.374.558.374.368.374.167.328.073.23.073.137.073.09.171.09.365c0 .194.047.289.142.289z"/></symbol><symbol id="E"><path d="M.404.401C.403.504.335.562.214.562.092.562.013.499.013.402.013.32.055.281.179.251L.257.232C.315.218.338.197.338.159.338.11.289.077.216.077.171.077.133.09.112.112.099.127.093.142.088.179H0C.004.058.072 0 .209 0c.132 0 .216.065.216.166 0 .078-.044.121-.148.146l-.08.019C.129.347.1.369.1.406c0 .048.043.079.111.079.067 0 .103-.029.105-.084h.088z"/></symbol><symbol id="F"><path d="M.44.371a.216.216 0 0 1-.035.113.21.21 0 0 1-.172.078C.092.562 0 .45 0 .276 0 .107.09 0 .232 0c.125 0 .204.075.214.203H.362C.348.119.305.077.234.077.142.077.087.152.087.276c0 .131.054.209.145.209.07 0 .114-.041.124-.114H.44z"/></symbol><symbol id="G"><path d="M0 0h.084v.273A.192.192 0 0 1 .245.195c.135 0 .224.109.224.276 0 .176-.086.286-.225.286A.189.189 0 0 1 .077.663v.079H0V0m.23.679C.322.679.382.598.382.473c0-.119-.061-.2-.152-.2-.088 0-.146.08-.146.203 0 .123.058.203.146.203z"/></symbol><symbol id="H"><path d="M.113.148H0L.149 0h.06L.113.148z"/></symbol><symbol id="I"><path d="M.084.729H0V0h.084v.729z"/></symbol><symbol id="J"><path d="M0 .232V.128h.048C.049.07.035.043 0 .038V0c.06.005.093.051.093.131v.101H0z"/></symbol><symbol id="K"><path d="M0 .752V.023h.075V.09A.184.184 0 0 1 .241 0c.138 0 .228.113.228.287 0 .17-.086.275-.224.275A.179.179 0 0 1 .083.476v.276H0M.229.484C.322.484.382.403.382.278c0-.119-.062-.2-.153-.2-.088 0-.146.08-.146.203 0 .123.058.203.146.203z"/></symbol><symbol id="L"><path d="M.084.524H.001V0h.083v.524m0 .205H0V.624h.084v.105z"/></symbol><symbol id="M"><path d="m.275 0 .201.524H.382L.234.099l-.14.425H0L.184 0h.091z"/></symbol><use xlink:href="#v" transform="matrix(4.9813 0 0 -4.9813 78.088 53.576)" fill="#e05048"/><use xlink:href="#w" transform="matrix(4.9813 0 0 -4.9813 82.123 53.461)" fill="#e05048"/><use xlink:href="#x" transform="matrix(4.9813 0 0 -4.9813 86.138 53.576)" fill="#e05048"/><use xlink:href="#y" transform="matrix(4.9813 0 0 -4.9813 88.609 54.547)" fill="#e05048"/><use xlink:href="#z" transform="matrix(4.9813 0 0 -4.9813 89.984 53.576)" fill="#e05048"/><use xlink:href="#A" transform="matrix(4.9813 0 0 -4.9813 92.898 53.576)" fill="#e05048"/><use xlink:href="#B" transform="matrix(4.9813 0 0 -4.9813 95.413 53.576)" fill="#e05048"/><use xlink:href="#C" transform="matrix(4.9813 0 0 -4.9813 96.928 53.576)" fill="#e05048"/><use xlink:href="#D" transform="matrix(4.9813 0 0 -4.9813 101.097 53.576)" fill="#e05048"/><use xlink:href="#d" transform="matrix(4.9813 0 0 -4.9813 105.326 53.461)" fill="#e05048"/><use xlink:href="#e" transform="matrix(4.9813 0 0 -4.9813 107.672 54.547)" fill="#e05048"/><use xlink:href="#x" transform="matrix(4.9813 0 0 -4.9813 111.891 53.576)" fill="#e05048"/><use xlink:href="#A" transform="matrix(4.9813 0 0 -4.9813 114.776 53.576)" fill="#e05048"/><use xlink:href="#E" transform="matrix(4.9813 0 0 -4.9813 118.776 53.576)" fill="#e05048"/><use xlink:href="#x" transform="matrix(4.9813 0 0 -4.9813 121.306 53.576)" fill="#e05048"/><use xlink:href="#F" transform="matrix(4.9813 0 0 -4.9813 124.02 53.576)" fill="#e05048"/><use xlink:href="#C" transform="matrix(4.9813 0 0 -4.9813 71.655 59.862)" fill="#e05048"/><use xlink:href="#B" transform="matrix(4.9813 0 0 -4.9813 74.295 59.862)" fill="#e05048"/><use xlink:href="#z" transform="matrix(4.9813 0 0 -4.9813 77.175 59.862)" fill="#e05048"/><use xlink:href="#w" transform="matrix(4.9813 0 0 -4.9813 80.114 59.747)" fill="#e05048"/><use xlink:href="#G" transform="matrix(4.9813 0 0 -4.9813 84.188 60.833)" fill="#e05048"/><use xlink:href="#x" transform="matrix(4.9813 0 0 -4.9813 86.898 59.862)" fill="#e05048"/><use xlink:href="#E" transform="matrix(4.9813 0 0 -4.9813 89.628 59.862)" fill="#e05048"/><use xlink:href="#E" transform="matrix(4.9813 0 0 -4.9813 92.118 59.862)" fill="#e05048"/><use xlink:href="#C" transform="matrix(4.9813 0 0 -4.9813 94.639 59.862)" fill="#e05048"/><use xlink:href="#H" transform="matrix(4.9813 0 0 -4.9813 99.259 56.706)" fill="#e05048"/><use xlink:href="#x" transform="matrix(4.9813 0 0 -4.9813 98.803 59.862)" fill="#e05048"/><use xlink:href="#I" transform="matrix(4.9813 0 0 -4.9813 103.087 59.747)" fill="#e05048"/><use xlink:href="#J" transform="matrix(4.9813 0 0 -4.9813 104.173 57.271)" fill="#e05048"/><use xlink:href="#z" transform="matrix(4.9813 0 0 -4.9813 105.14 59.862)" fill="#e05048"/><use xlink:href="#K" transform="matrix(4.9813 0 0 -4.9813 107.999 59.862)" fill="#e05048"/><use xlink:href="#y" transform="matrix(4.9813 0 0 -4.9813 110.41 60.833)" fill="#e05048"/><use xlink:href="#C" transform="matrix(4.9813 0 0 -4.9813 111.804 59.862)" fill="#e05048"/><use xlink:href="#B" transform="matrix(4.9813 0 0 -4.9813 114.444 59.862)" fill="#e05048"/><use xlink:href="#E" transform="matrix(4.9813 0 0 -4.9813 117.314 59.862)" fill="#e05048"/><use xlink:href="#A" transform="matrix(4.9813 0 0 -4.9813 119.959 59.862)" fill="#e05048"/><use xlink:href="#L" transform="matrix(4.9813 0 0 -4.9813 122.733 59.747)" fill="#e05048"/><use xlink:href="#M" transform="matrix(4.9813 0 0 -4.9813 123.56 59.747)" fill="#e05048"/><use xlink:href="#x" transform="matrix(4.9813 0 0 -4.9813 126.086 59.862)" fill="#e05048"/><use xlink:href="#w" transform="matrix(4.9813 0 0 -4.9813 128.995 59.747)" fill="#e05048"/><use xlink:href="#B" transform="matrix(4.9813 0 0 -4.9813 131.486 59.862)" fill="#e05048"/><path stroke-width=".399" stroke-miterlimit="10" fill="none" stroke="#e05048" d="M48.35 79.093c47.488 0 60.07 56.694 99.153 56.694"/><path d="m155.086 135.787-7.484-1.925v3.849z" fill="#e05048"/><path stroke-width=".399" stroke-miterlimit="10" fill="none" stroke="#e05048" d="m155.086 135.787-7.484-1.925v3.849z"/><path d="M132.137 94.08H72.12a3.985 3.985 0 0 0-3.985 3.985v18.75c0 2.2 1.784 3.985 3.985 3.985h60.016c2.2 0 3.985-1.784 3.985-3.985v-18.75a3.985 3.985 0 0 0-3.985-3.985zM68.136 120.8" fill="#f8dcda"/><path stroke-width=".399" stroke-miterlimit="10" fill="none" stroke="#e05048" d="M132.137 94.08H72.12a3.985 3.985 0 0 0-3.985 3.985v18.75c0 2.2 1.784 3.985 3.985 3.985h60.016c2.2 0 3.985-1.784 3.985-3.985v-18.75a3.985 3.985 0 0 0-3.985-3.985zM68.136 120.8"/><symbol id="N"><path d="M.475.147.523 0h.154L.425.729H.259L0 0h.153l.049.147h.273M.434.272h-.19l.095.285.095-.285z"/></symbol><use xlink:href="#N" transform="matrix(4.9813 0 0 -4.9813 82.769 101.034)" fill="#e05048"/><use xlink:href="#l" transform="matrix(4.9813 0 0 -4.9813 86.305 101.034)" fill="#e05048"/><use xlink:href="#l" transform="matrix(4.9813 0 0 -4.9813 87.964 101.034)" fill="#e05048"/><use xlink:href="#h" transform="matrix(4.9813 0 0 -4.9813 89.613 101.149)" fill="#e05048"/><use xlink:href="#m" transform="matrix(4.9813 0 0 -4.9813 92.442 101.149)" fill="#e05048"/><use xlink:href="#n" transform="matrix(4.9813 0 0 -4.9813 95.112 101.149)" fill="#e05048"/><use xlink:href="#h" transform="matrix(4.9813 0 0 -4.9813 96.81 101.149)" fill="#e05048"/><use xlink:href="#o" transform="matrix(4.9813 0 0 -4.9813 99.785 101.034)" fill="#e05048"/><use xlink:href="#p" transform="matrix(4.9813 0 0 -4.9813 103.127 101.034)" fill="#e05048"/><use xlink:href="#q" transform="matrix(4.9813 0 0 -4.9813 104.507 98.698)" fill="#e05048"/><use xlink:href="#r" transform="matrix(4.9813 0 0 -4.9813 105.737 101.149)" fill="#e05048"/><use xlink:href="#s" transform="matrix(4.9813 0 0 -4.9813 108.9 101.149)" fill="#e05048"/><use xlink:href="#t" transform="matrix(4.9813 0 0 -4.9813 111.67 102.12)" fill="#e05048"/><use xlink:href="#h" transform="matrix(4.9813 0 0 -4.9813 113.144 101.149)" fill="#e05048"/><use xlink:href="#n" transform="matrix(4.9813 0 0 -4.9813 115.874 101.149)" fill="#e05048"/><use xlink:href="#u" transform="matrix(4.9813 0 0 -4.9813 119.007 101.149)" fill="#e05048"/><symbol id="O"><path d="M.189.348H.2l.037.001C.334.349.384.305.384.22.384.131.329.078.237.078.141.078.094.126.088.229H0A.3.3 0 0 1 .031.103C.067.035.137 0 .234 0c.146 0 .24.087.24.221 0 .09-.035.14-.12.169a.146.146 0 0 1 .099.147c0 .122-.081.195-.216.195C.094.732.018.654.015.503h.088a.199.199 0 0 0 .016.089c.02.039.064.063.119.063.078 0 .125-.046.125-.121 0-.05-.018-.08-.057-.096A.322.322 0 0 0 .189.423V.348z"/></symbol><use xlink:href="#v" transform="matrix(4.9813 0 0 -4.9813 78.088 110.269)" fill="#e05048"/><use xlink:href="#w" transform="matrix(4.9813 0 0 -4.9813 82.123 110.154)" fill="#e05048"/><use xlink:href="#x" transform="matrix(4.9813 0 0 -4.9813 86.138 110.269)" fill="#e05048"/><use xlink:href="#y" transform="matrix(4.9813 0 0 -4.9813 88.609 111.24)" fill="#e05048"/><use xlink:href="#z" transform="matrix(4.9813 0 0 -4.9813 89.984 110.269)" fill="#e05048"/><use xlink:href="#A" transform="matrix(4.9813 0 0 -4.9813 92.898 110.269)" fill="#e05048"/><use xlink:href="#B" transform="matrix(4.9813 0 0 -4.9813 95.413 110.269)" fill="#e05048"/><use xlink:href="#C" transform="matrix(4.9813 0 0 -4.9813 96.928 110.269)" fill="#e05048"/><use xlink:href="#O" transform="matrix(4.9813 0 0 -4.9813 101.042 110.269)" fill="#e05048"/><use xlink:href="#d" transform="matrix(4.9813 0 0 -4.9813 105.326 110.154)" fill="#e05048"/><use xlink:href="#e" transform="matrix(4.9813 0 0 -4.9813 107.672 111.24)" fill="#e05048"/><use xlink:href="#x" transform="matrix(4.9813 0 0 -4.9813 111.891 110.269)" fill="#e05048"/><use xlink:href="#A" transform="matrix(4.9813 0 0 -4.9813 114.776 110.269)" fill="#e05048"/><use xlink:href="#E" transform="matrix(4.9813 0 0 -4.9813 118.776 110.269)" fill="#e05048"/><use xlink:href="#x" transform="matrix(4.9813 0 0 -4.9813 121.306 110.269)" fill="#e05048"/><use xlink:href="#F" transform="matrix(4.9813 0 0 -4.9813 124.02 110.269)" fill="#e05048"/><use xlink:href="#C" transform="matrix(4.9813 0 0 -4.9813 71.655 116.555)" fill="#e05048"/><use xlink:href="#B" transform="matrix(4.9813 0 0 -4.9813 74.295 116.555)" fill="#e05048"/><use xlink:href="#z" transform="matrix(4.9813 0 0 -4.9813 77.175 116.555)" fill="#e05048"/><use xlink:href="#w" transform="matrix(4.9813 0 0 -4.9813 80.114 116.44)" fill="#e05048"/><use xlink:href="#G" transform="matrix(4.9813 0 0 -4.9813 84.188 117.526)" fill="#e05048"/><use xlink:href="#x" transform="matrix(4.9813 0 0 -4.9813 86.898 116.555)" fill="#e05048"/><use xlink:href="#E" transform="matrix(4.9813 0 0 -4.9813 89.628 116.555)" fill="#e05048"/><use xlink:href="#E" transform="matrix(4.9813 0 0 -4.9813 92.118 116.555)" fill="#e05048"/><use xlink:href="#C" transform="matrix(4.9813 0 0 -4.9813 94.639 116.555)" fill="#e05048"/><use xlink:href="#H" transform="matrix(4.9813 0 0 -4.9813 99.259 113.4)" fill="#e05048"/><use xlink:href="#x" transform="matrix(4.9813 0 0 -4.9813 98.803 116.555)" fill="#e05048"/><use xlink:href="#I" transform="matrix(4.9813 0 0 -4.9813 103.087 116.44)" fill="#e05048"/><use xlink:href="#J" transform="matrix(4.9813 0 0 -4.9813 104.173 113.964)" fill="#e05048"/><use xlink:href="#z" transform="matrix(4.9813 0 0 -4.9813 105.14 116.555)" fill="#e05048"/><use xlink:href="#K" transform="matrix(4.9813 0 0 -4.9813 107.999 116.555)" fill="#e05048"/><use xlink:href="#y" transform="matrix(4.9813 0 0 -4.9813 110.41 117.526)" fill="#e05048"/><use xlink:href="#C" transform="matrix(4.9813 0 0 -4.9813 111.804 116.555)" fill="#e05048"/><use xlink:href="#B" transform="matrix(4.9813 0 0 -4.9813 114.444 116.555)" fill="#e05048"/><use xlink:href="#E" transform="matrix(4.9813 0 0 -4.9813 117.314 116.555)" fill="#e05048"/><use xlink:href="#A" transform="matrix(4.9813 0 0 -4.9813 119.959 116.555)" fill="#e05048"/><use xlink:href="#L" transform="matrix(4.9813 0 0 -4.9813 122.733 116.44)" fill="#e05048"/><use xlink:href="#M" transform="matrix(4.9813 0 0 -4.9813 123.56 116.44)" fill="#e05048"/><use xlink:href="#x" transform="matrix(4.9813 0 0 -4.9813 126.086 116.555)" fill="#e05048"/><use xlink:href="#w" transform="matrix(4.9813 0 0 -4.9813 128.995 116.44)" fill="#e05048"/><use xlink:href="#B" transform="matrix(4.9813 0 0 -4.9813 131.486 116.555)" fill="#e05048"/></svg>