<svg xmlns="http://www.w3.org/2000/svg" xmlns:xlink="http://www.w3.org/1999/xlink" width="746.993" height="399.892" viewBox="0 0 560.245 299.919"><path d="M541.89 269.491h-29.127a3.985 3.985 0 0 0-3.985 3.985v8.086c0 2.2 1.784 3.985 3.985 3.985h29.126a3.985 3.985 0 0 0 3.985-3.985v-8.086c0-2.2-1.784-3.985-3.985-3.985zm-33.112 16.056" fill="#d7e1fc"/><path stroke-width=".399" stroke-miterlimit="10" fill="none" stroke="#386af1" d="M541.89 269.491h-29.127a3.985 3.985 0 0 0-3.985 3.985v8.086c0 2.2 1.784 3.985 3.985 3.985h29.126a3.985 3.985 0 0 0 3.985-3.985v-8.086c0-2.2-1.784-3.985-3.985-3.985zm-33.112 16.056"/><symbol id="a"><path d="M.238.072H0V0h.238v.072z"/></symbol><symbol id="b"><path d="M.157.505V0h.088v.709H.187C.156.6.136.585 0 .568V.505h.157z"/></symbol><symbol id="c"><path d="M0 .251V.147h.06V.129C.06.06.047.04 0 .038V0c.07 0 .105.045.105.131v.12H0z"/></symbol><symbol id="d"><path d="M.232.732A.202.202 0 0 1 .069.654C.023.592 0 .497 0 .366 0 .127.08 0 .232 0c.15 0 .232.127.232.36 0 .138-.022.23-.069.294a.198.198 0 0 1-.163.078m0-.078C.327.654.374.558.374.368.374.167.328.073.23.073.137.073.09.171.09.365c0 .194.047.289.142.289z"/></symbol><symbol id="e"><path d="M.083.729H0V0h.083v.204l.081.08L.341 0h.103L.23.343l.182.181H.305L.083.302v.427z"/></symbol><symbol id="f"><path d="M.383.742V.666C.341.728.29.757.223.757.09.757 0 .641 0 .471 0 .385.023.315.066.265a.205.205 0 0 1 .15-.07c.066 0 .112.028.159.094V.262C.375.191.366.148.345.119.323.088.28.07.229.07a.155.155 0 0 0-.095.028C.115.113.107.127.102.158H.017C.026.059.103 0 .226 0c.078 0 .145.025.179.067.04.048.055.114.055.237v.438H.383M.232.68C.322.68.375.604.375.473.375.348.321.272.233.272.142.272.087.349.087.476c0 .126.056.204.145.204z"/></symbol><use xlink:href="#a" transform="matrix(9.9626 0 0 -9.9626 512.555 277.618)" fill="#386af1"/><use xlink:href="#b" transform="matrix(9.9626 0 0 -9.9626 516.43 280.009)" fill="#386af1"/><use xlink:href="#c" transform="matrix(9.9626 0 0 -9.9626 521.82 281.474)" fill="#386af1"/><use xlink:href="#d" transform="matrix(9.9626 0 0 -9.9626 526.921 280.238)" fill="#386af1"/><use xlink:href="#e" transform="matrix(9.9626 0 0 -9.9626 532.61 280.009)" fill="#386af1"/><use xlink:href="#f" transform="matrix(9.9626 0 0 -9.9626 537.302 282.18)" fill="#386af1"/><path d="M541.89 241.144h-29.127a3.985 3.985 0 0 0-3.985 3.985v8.086c0 2.2 1.784 3.985 3.985 3.985h29.126a3.985 3.985 0 0 0 3.985-3.985v-8.086a3.985 3.985 0 0 0-3.985-3.985zM508.777 257.2" fill="#d7e1fc"/><path stroke-width=".399" stroke-miterlimit="10" fill="none" stroke="#386af1" d="M541.89 241.144h-29.127a3.985 3.985 0 0 0-3.985 3.985v8.086c0 2.2 1.784 3.985 3.985 3.985h29.126a3.985 3.985 0 0 0 3.985-3.985v-8.086a3.985 3.985 0 0 0-3.985-3.985zM508.777 257.2"/><use xlink:href="#a" transform="matrix(9.9626 0 0 -9.9626 512.555 249.272)" fill="#386af1"/><use xlink:href="#b" transform="matrix(9.9626 0 0 -9.9626 516.43 251.663)" fill="#386af1"/><use xlink:href="#c" transform="matrix(9.9626 0 0 -9.9626 521.82 253.128)" fill="#386af1"/><use xlink:href="#b" transform="matrix(9.9626 0 0 -9.9626 527.51 251.663)" fill="#386af1"/><use xlink:href="#e" transform="matrix(9.9626 0 0 -9.9626 532.61 251.663)" fill="#386af1"/><use xlink:href="#f" transform="matrix(9.9626 0 0 -9.9626 537.302 253.835)" fill="#386af1"/><path d="M541.89 212.797h-29.127a3.985 3.985 0 0 0-3.985 3.986v8.085a3.985 3.985 0 0 0 3.985 3.985h29.126a3.985 3.985 0 0 0 3.985-3.985v-8.085a3.985 3.985 0 0 0-3.985-3.986zm-33.112 16.056" fill="#d7e1fc"/><path stroke-width=".399" stroke-miterlimit="10" fill="none" stroke="#386af1" d="M541.89 212.797h-29.127a3.985 3.985 0 0 0-3.985 3.986v8.085a3.985 3.985 0 0 0 3.985 3.985h29.126a3.985 3.985 0 0 0 3.985-3.985v-8.085a3.985 3.985 0 0 0-3.985-3.986zm-33.112 16.056"/><symbol id="g"><path d="M.472.087H.099C.108.145.14.182.227.233l.1.054c.099.054.15.127.15.214a.204.204 0 0 1-.066.152.227.227 0 0 1-.161.056C.16.709.093.677.054.617A.276.276 0 0 1 .016.463h.088a.245.245 0 0 0 .021.1.135.135 0 0 0 .122.069c.08 0 .14-.057.14-.133C.387.443.354.395.291.359L.199.307C.051.223.008.156 0 0h.472v.087z"/></symbol><use xlink:href="#a" transform="matrix(9.9626 0 0 -9.9626 512.555 220.925)" fill="#386af1"/><use xlink:href="#b" transform="matrix(9.9626 0 0 -9.9626 516.43 223.316)" fill="#386af1"/><use xlink:href="#c" transform="matrix(9.9626 0 0 -9.9626 521.82 224.78)" fill="#386af1"/><use xlink:href="#g" transform="matrix(9.9626 0 0 -9.9626 526.832 223.316)" fill="#386af1"/><use xlink:href="#e" transform="matrix(9.9626 0 0 -9.9626 532.61 223.316)" fill="#386af1"/><use xlink:href="#f" transform="matrix(9.9626 0 0 -9.9626 537.302 225.488)" fill="#386af1"/><path d="M541.89 184.45h-29.127a3.985 3.985 0 0 0-3.985 3.986v8.085c0 2.201 1.784 3.985 3.985 3.985h29.126a3.985 3.985 0 0 0 3.985-3.985v-8.085c0-2.201-1.784-3.985-3.985-3.985zm-33.112 16.056" fill="#d7e1fc"/><path stroke-width=".399" stroke-miterlimit="10" fill="none" stroke="#386af1" d="M541.89 184.45h-29.127a3.985 3.985 0 0 0-3.985 3.986v8.085c0 2.201 1.784 3.985 3.985 3.985h29.126a3.985 3.985 0 0 0 3.985-3.985v-8.085c0-2.201-1.784-3.985-3.985-3.985zm-33.112 16.056"/><symbol id="h"><path d="M.189.348H.2l.037.001C.334.349.384.305.384.22.384.131.329.078.237.078.141.078.094.126.088.229H0A.3.3 0 0 1 .031.103C.067.035.137 0 .234 0c.146 0 .24.087.24.221 0 .09-.035.14-.12.169a.146.146 0 0 1 .099.147c0 .122-.081.195-.216.195C.094.732.018.654.015.503h.088a.199.199 0 0 0 .016.089c.02.039.064.063.119.063.078 0 .125-.046.125-.121 0-.05-.018-.08-.057-.096A.322.322 0 0 0 .189.423V.348z"/></symbol><use xlink:href="#a" transform="matrix(9.9626 0 0 -9.9626 512.555 192.579)" fill="#386af1"/><use xlink:href="#b" transform="matrix(9.9626 0 0 -9.9626 516.43 194.97)" fill="#386af1"/><use xlink:href="#c" transform="matrix(9.9626 0 0 -9.9626 521.82 196.435)" fill="#386af1"/><use xlink:href="#h" transform="matrix(9.9626 0 0 -9.9626 526.812 195.2)" fill="#386af1"/><use xlink:href="#e" transform="matrix(9.9626 0 0 -9.9626 532.61 194.97)" fill="#386af1"/><use xlink:href="#f" transform="matrix(9.9626 0 0 -9.9626 537.302 197.142)" fill="#386af1"/><path d="M541.89 156.104h-29.127a3.985 3.985 0 0 0-3.985 3.985v8.086c0 2.2 1.784 3.985 3.985 3.985h29.126a3.985 3.985 0 0 0 3.985-3.985v-8.086c0-2.201-1.784-3.985-3.985-3.985zm-33.112 16.056" fill="#d7e1fc"/><path stroke-width=".399" stroke-miterlimit="10" fill="none" stroke="#386af1" d="M541.89 156.104h-29.127a3.985 3.985 0 0 0-3.985 3.985v8.086c0 2.2 1.784 3.985 3.985 3.985h29.126a3.985 3.985 0 0 0 3.985-3.985v-8.086c0-2.201-1.784-3.985-3.985-3.985zm-33.112 16.056"/><symbol id="i"><path d="M.299.17V0h.088v.17h.105v.079H.387v.46H.322L0 .263V.17h.299m0 .079H.077l.222.31v-.31z"/></symbol><use xlink:href="#a" transform="matrix(9.9626 0 0 -9.9626 512.555 164.233)" fill="#386af1"/><use xlink:href="#b" transform="matrix(9.9626 0 0 -9.9626 516.43 166.624)" fill="#386af1"/><use xlink:href="#c" transform="matrix(9.9626 0 0 -9.9626 521.82 168.089)" fill="#386af1"/><use xlink:href="#i" transform="matrix(9.9626 0 0 -9.9626 526.772 166.624)" fill="#386af1"/><use xlink:href="#e" transform="matrix(9.9626 0 0 -9.9626 532.61 166.624)" fill="#386af1"/><use xlink:href="#f" transform="matrix(9.9626 0 0 -9.9626 537.302 168.796)" fill="#386af1"/><path d="M541.89 99.41h-29.127a3.985 3.985 0 0 0-3.985 3.985v8.086c0 2.2 1.784 3.985 3.985 3.985h29.126a3.985 3.985 0 0 0 3.985-3.985v-8.086c0-2.2-1.784-3.985-3.985-3.985zm-33.112 16.056" fill="#d7e1fc"/><path stroke-width=".399" stroke-miterlimit="10" fill="none" stroke="#386af1" d="M541.89 99.41h-29.127a3.985 3.985 0 0 0-3.985 3.985v8.086c0 2.2 1.784 3.985 3.985 3.985h29.126a3.985 3.985 0 0 0 3.985-3.985v-8.086c0-2.2-1.784-3.985-3.985-3.985zm-33.112 16.056"/><symbol id="j"><path d="M.455.547C.438.663.362.732.254.732a.226.226 0 0 1-.19-.101A.51.51 0 0 1 0 .346.44.44 0 0 1 .06.088.204.204 0 0 1 .238 0C.373 0 .47.1.47.239.47.371.38.464.253.464A.191.191 0 0 1 .09.385c.001.173.057.269.158.269C.31.654.353.615.367.547h.088M.242.386C.327.386.38.327.38.232.38.143.32.078.239.078.157.078.095.146.095.237c0 .088.06.149.147.149z"/></symbol><use xlink:href="#a" transform="matrix(9.9626 0 0 -9.9626 512.555 107.54)" fill="#386af1"/><use xlink:href="#b" transform="matrix(9.9626 0 0 -9.9626 516.43 109.931)" fill="#386af1"/><use xlink:href="#c" transform="matrix(9.9626 0 0 -9.9626 521.82 111.395)" fill="#386af1"/><use xlink:href="#j" transform="matrix(9.9626 0 0 -9.9626 526.921 110.16)" fill="#386af1"/><use xlink:href="#e" transform="matrix(9.9626 0 0 -9.9626 532.61 109.931)" fill="#386af1"/><use xlink:href="#f" transform="matrix(9.9626 0 0 -9.9626 537.302 112.103)" fill="#386af1"/><path d="M541.89 14.37h-29.127a3.985 3.985 0 0 0-3.985 3.985v8.086c0 2.2 1.784 3.985 3.985 3.985h29.126a3.985 3.985 0 0 0 3.985-3.985v-8.086c0-2.201-1.784-3.985-3.985-3.985zm-33.112 16.056" fill="#d7e1fc"/><path stroke-width=".399" stroke-miterlimit="10" fill="none" stroke="#386af1" d="M541.89 14.37h-29.127a3.985 3.985 0 0 0-3.985 3.985v8.086c0 2.2 1.784 3.985 3.985 3.985h29.126a3.985 3.985 0 0 0 3.985-3.985v-8.086c0-2.201-1.784-3.985-3.985-3.985zm-33.112 16.056"/><symbol id="k"><path d="M.015.185C.032.069.108 0 .216 0c.078 0 .149.038.19.101a.501.501 0 0 1 .065.285.44.44 0 0 1-.06.258.207.207 0 0 1-.179.088C.097.732 0 .632 0 .493 0 .361.09.268.218.268c.067 0 .116.024.162.079C.379.174.323.078.222.078.16.078.117.117.103.185H.015m.216.47c.082 0 .144-.068.144-.16A.142.142 0 0 0 .228.346C.143.346.09.405.09.5c0 .09.06.155.141.155z"/></symbol><use xlink:href="#a" transform="matrix(9.9626 0 0 -9.9626 512.555 22.5)" fill="#386af1"/><use xlink:href="#b" transform="matrix(9.9626 0 0 -9.9626 516.43 24.891)" fill="#386af1"/><use xlink:href="#c" transform="matrix(9.9626 0 0 -9.9626 521.82 26.355)" fill="#386af1"/><use xlink:href="#k" transform="matrix(9.9626 0 0 -9.9626 526.872 25.12)" fill="#386af1"/><use xlink:href="#e" transform="matrix(9.9626 0 0 -9.9626 532.61 24.891)" fill="#386af1"/><use xlink:href="#f" transform="matrix(9.9626 0 0 -9.9626 537.302 27.063)" fill="#386af1"/><path d="M469.364 269.491h-25.81a3.985 3.985 0 0 0-3.985 3.985v8.086c0 2.2 1.785 3.985 3.985 3.985h25.81c2.2 0 3.985-1.784 3.985-3.985v-8.086c0-2.2-1.785-3.985-3.985-3.985zm-29.795 16.056" fill="#d7e1fc"/><path stroke-width=".399" stroke-miterlimit="10" fill="none" stroke="#386af1" d="M469.364 269.491h-25.81a3.985 3.985 0 0 0-3.985 3.985v8.086c0 2.2 1.785 3.985 3.985 3.985h25.81c2.2 0 3.985-1.784 3.985-3.985v-8.086c0-2.2-1.785-3.985-3.985-3.985zm-29.795 16.056"/><use xlink:href="#d" transform="matrix(9.9626 0 0 -9.9626 443.318 280.238)" fill="#386af1"/><use xlink:href="#c" transform="matrix(9.9626 0 0 -9.9626 449.296 281.474)" fill="#386af1"/><use xlink:href="#d" transform="matrix(9.9626 0 0 -9.9626 454.397 280.238)" fill="#386af1"/><use xlink:href="#e" transform="matrix(9.9626 0 0 -9.9626 460.085 280.009)" fill="#386af1"/><use xlink:href="#f" transform="matrix(9.9626 0 0 -9.9626 464.778 282.18)" fill="#386af1"/><path d="M469.364 241.144h-25.81a3.985 3.985 0 0 0-3.985 3.985v8.086c0 2.2 1.785 3.985 3.985 3.985h25.81c2.2 0 3.985-1.784 3.985-3.985v-8.086a3.985 3.985 0 0 0-3.985-3.985zM439.569 257.2" fill="#d7e1fc"/><path stroke-width=".399" stroke-miterlimit="10" fill="none" stroke="#386af1" d="M469.364 241.144h-25.81a3.985 3.985 0 0 0-3.985 3.985v8.086c0 2.2 1.785 3.985 3.985 3.985h25.81c2.2 0 3.985-1.784 3.985-3.985v-8.086a3.985 3.985 0 0 0-3.985-3.985zM439.569 257.2"/><use xlink:href="#d" transform="matrix(9.9626 0 0 -9.9626 443.318 251.892)" fill="#386af1"/><use xlink:href="#c" transform="matrix(9.9626 0 0 -9.9626 449.296 253.128)" fill="#386af1"/><use xlink:href="#b" transform="matrix(9.9626 0 0 -9.9626 454.985 251.663)" fill="#386af1"/><use xlink:href="#e" transform="matrix(9.9626 0 0 -9.9626 460.085 251.663)" fill="#386af1"/><use xlink:href="#f" transform="matrix(9.9626 0 0 -9.9626 464.778 253.835)" fill="#386af1"/><path d="M469.364 212.797h-25.81a3.985 3.985 0 0 0-3.985 3.986v8.085a3.985 3.985 0 0 0 3.985 3.985h25.81c2.2 0 3.985-1.784 3.985-3.985v-8.085a3.985 3.985 0 0 0-3.985-3.986zm-29.795 16.056" fill="#d7e1fc"/><path stroke-width=".399" stroke-miterlimit="10" fill="none" stroke="#386af1" d="M469.364 212.797h-25.81a3.985 3.985 0 0 0-3.985 3.986v8.085a3.985 3.985 0 0 0 3.985 3.985h25.81c2.2 0 3.985-1.784 3.985-3.985v-8.085a3.985 3.985 0 0 0-3.985-3.986zm-29.795 16.056"/><use xlink:href="#d" transform="matrix(9.9626 0 0 -9.9626 443.318 223.545)" fill="#386af1"/><use xlink:href="#c" transform="matrix(9.9626 0 0 -9.9626 449.296 224.78)" fill="#386af1"/><use xlink:href="#g" transform="matrix(9.9626 0 0 -9.9626 454.307 223.316)" fill="#386af1"/><use xlink:href="#e" transform="matrix(9.9626 0 0 -9.9626 460.085 223.316)" fill="#386af1"/><use xlink:href="#f" transform="matrix(9.9626 0 0 -9.9626 464.778 225.488)" fill="#386af1"/><path d="M469.364 184.45h-25.81a3.985 3.985 0 0 0-3.985 3.986v8.085c0 2.201 1.785 3.985 3.985 3.985h25.81c2.2 0 3.985-1.784 3.985-3.985v-8.085c0-2.201-1.785-3.985-3.985-3.985zm-29.795 16.056" fill="#d7e1fc"/><path stroke-width=".399" stroke-miterlimit="10" fill="none" stroke="#386af1" d="M469.364 184.45h-25.81a3.985 3.985 0 0 0-3.985 3.986v8.085c0 2.201 1.785 3.985 3.985 3.985h25.81c2.2 0 3.985-1.784 3.985-3.985v-8.085c0-2.201-1.785-3.985-3.985-3.985zm-29.795 16.056"/><use xlink:href="#d" transform="matrix(9.9626 0 0 -9.9626 443.318 195.2)" fill="#386af1"/><use xlink:href="#c" transform="matrix(9.9626 0 0 -9.9626 449.296 196.435)" fill="#386af1"/><use xlink:href="#h" transform="matrix(9.9626 0 0 -9.9626 454.287 195.2)" fill="#386af1"/><use xlink:href="#e" transform="matrix(9.9626 0 0 -9.9626 460.085 194.97)" fill="#386af1"/><use xlink:href="#f" transform="matrix(9.9626 0 0 -9.9626 464.778 197.142)" fill="#386af1"/><path d="M469.364 156.104h-25.81a3.985 3.985 0 0 0-3.985 3.985v8.086c0 2.2 1.785 3.985 3.985 3.985h25.81c2.2 0 3.985-1.785 3.985-3.985v-8.086c0-2.201-1.785-3.985-3.985-3.985zm-29.795 16.056" fill="#d7e1fc"/><path stroke-width=".399" stroke-miterlimit="10" fill="none" stroke="#386af1" d="M469.364 156.104h-25.81a3.985 3.985 0 0 0-3.985 3.985v8.086c0 2.2 1.785 3.985 3.985 3.985h25.81c2.2 0 3.985-1.785 3.985-3.985v-8.086c0-2.201-1.785-3.985-3.985-3.985zm-29.795 16.056"/><use xlink:href="#d" transform="matrix(9.9626 0 0 -9.9626 443.318 166.853)" fill="#386af1"/><use xlink:href="#c" transform="matrix(9.9626 0 0 -9.9626 449.296 168.089)" fill="#386af1"/><use xlink:href="#i" transform="matrix(9.9626 0 0 -9.9626 454.247 166.624)" fill="#386af1"/><use xlink:href="#e" transform="matrix(9.9626 0 0 -9.9626 460.085 166.624)" fill="#386af1"/><use xlink:href="#f" transform="matrix(9.9626 0 0 -9.9626 464.778 168.796)" fill="#386af1"/><path d="M469.364 99.41h-25.81a3.985 3.985 0 0 0-3.985 3.985v8.086c0 2.2 1.785 3.985 3.985 3.985h25.81c2.2 0 3.985-1.784 3.985-3.985v-8.086c0-2.2-1.785-3.985-3.985-3.985zm-29.795 16.056" fill="#d7e1fc"/><path stroke-width=".399" stroke-miterlimit="10" fill="none" stroke="#386af1" d="M469.364 99.41h-25.81a3.985 3.985 0 0 0-3.985 3.985v8.086c0 2.2 1.785 3.985 3.985 3.985h25.81c2.2 0 3.985-1.784 3.985-3.985v-8.086c0-2.2-1.785-3.985-3.985-3.985zm-29.795 16.056"/><use xlink:href="#d" transform="matrix(9.9626 0 0 -9.9626 443.318 110.16)" fill="#386af1"/><use xlink:href="#c" transform="matrix(9.9626 0 0 -9.9626 449.296 111.395)" fill="#386af1"/><use xlink:href="#j" transform="matrix(9.9626 0 0 -9.9626 454.397 110.16)" fill="#386af1"/><use xlink:href="#e" transform="matrix(9.9626 0 0 -9.9626 460.085 109.931)" fill="#386af1"/><use xlink:href="#f" transform="matrix(9.9626 0 0 -9.9626 464.778 112.103)" fill="#386af1"/><path d="M469.364 14.37h-25.81a3.985 3.985 0 0 0-3.985 3.985v8.086c0 2.2 1.785 3.985 3.985 3.985h25.81c2.2 0 3.985-1.785 3.985-3.985v-8.086c0-2.201-1.785-3.985-3.985-3.985zm-29.795 16.056" fill="#d7e1fc"/><path stroke-width=".399" stroke-miterlimit="10" fill="none" stroke="#386af1" d="M469.364 14.37h-25.81a3.985 3.985 0 0 0-3.985 3.985v8.086c0 2.2 1.785 3.985 3.985 3.985h25.81c2.2 0 3.985-1.785 3.985-3.985v-8.086c0-2.201-1.785-3.985-3.985-3.985zm-29.795 16.056"/><use xlink:href="#d" transform="matrix(9.9626 0 0 -9.9626 443.318 25.12)" fill="#386af1"/><use xlink:href="#c" transform="matrix(9.9626 0 0 -9.9626 449.296 26.355)" fill="#386af1"/><use xlink:href="#k" transform="matrix(9.9626 0 0 -9.9626 454.347 25.12)" fill="#386af1"/><use xlink:href="#e" transform="matrix(9.9626 0 0 -9.9626 460.085 24.891)" fill="#386af1"/><use xlink:href="#f" transform="matrix(9.9626 0 0 -9.9626 464.778 27.063)" fill="#386af1"/><path d="M398.497 269.491h-25.81a3.985 3.985 0 0 0-3.985 3.985v8.086c0 2.2 1.784 3.985 3.985 3.985h25.81c2.2 0 3.985-1.784 3.985-3.985v-8.086c0-2.2-1.785-3.985-3.985-3.985zm-29.795 16.056" fill="#d7e1fc"/><path stroke-width=".399" stroke-miterlimit="10" fill="none" stroke="#386af1" d="M398.497 269.491h-25.81a3.985 3.985 0 0 0-3.985 3.985v8.086c0 2.2 1.784 3.985 3.985 3.985h25.81c2.2 0 3.985-1.784 3.985-3.985v-8.086c0-2.2-1.785-3.985-3.985-3.985zm-29.795 16.056"/><use xlink:href="#b" transform="matrix(9.9626 0 0 -9.9626 373.04 280.009)" fill="#386af1"/><use xlink:href="#c" transform="matrix(9.9626 0 0 -9.9626 378.43 281.474)" fill="#386af1"/><use xlink:href="#d" transform="matrix(9.9626 0 0 -9.9626 383.53 280.238)" fill="#386af1"/><use xlink:href="#e" transform="matrix(9.9626 0 0 -9.9626 389.22 280.009)" fill="#386af1"/><use xlink:href="#f" transform="matrix(9.9626 0 0 -9.9626 393.912 282.18)" fill="#386af1"/><path d="M398.497 241.144h-25.81a3.985 3.985 0 0 0-3.985 3.985v8.086c0 2.2 1.784 3.985 3.985 3.985h25.81c2.2 0 3.985-1.784 3.985-3.985v-8.086a3.985 3.985 0 0 0-3.985-3.985zM368.702 257.2" fill="#d7e1fc"/><path stroke-width=".399" stroke-miterlimit="10" fill="none" stroke="#386af1" d="M398.497 241.144h-25.81a3.985 3.985 0 0 0-3.985 3.985v8.086c0 2.2 1.784 3.985 3.985 3.985h25.81c2.2 0 3.985-1.784 3.985-3.985v-8.086a3.985 3.985 0 0 0-3.985-3.985zM368.702 257.2"/><use xlink:href="#b" transform="matrix(9.9626 0 0 -9.9626 373.04 251.663)" fill="#386af1"/><use xlink:href="#c" transform="matrix(9.9626 0 0 -9.9626 378.43 253.128)" fill="#386af1"/><use xlink:href="#b" transform="matrix(9.9626 0 0 -9.9626 384.119 251.663)" fill="#386af1"/><use xlink:href="#e" transform="matrix(9.9626 0 0 -9.9626 389.22 251.663)" fill="#386af1"/><use xlink:href="#f" transform="matrix(9.9626 0 0 -9.9626 393.912 253.835)" fill="#386af1"/><path d="M398.497 212.797h-25.81a3.985 3.985 0 0 0-3.985 3.986v8.085a3.985 3.985 0 0 0 3.985 3.985h25.81c2.2 0 3.985-1.784 3.985-3.985v-8.085a3.985 3.985 0 0 0-3.985-3.986zm-29.795 16.056" fill="#d7e1fc"/><path stroke-width=".399" stroke-miterlimit="10" fill="none" stroke="#386af1" d="M398.497 212.797h-25.81a3.985 3.985 0 0 0-3.985 3.986v8.085a3.985 3.985 0 0 0 3.985 3.985h25.81c2.2 0 3.985-1.784 3.985-3.985v-8.085a3.985 3.985 0 0 0-3.985-3.986zm-29.795 16.056"/><use xlink:href="#b" transform="matrix(9.9626 0 0 -9.9626 373.04 223.316)" fill="#386af1"/><use xlink:href="#c" transform="matrix(9.9626 0 0 -9.9626 378.43 224.78)" fill="#386af1"/><use xlink:href="#g" transform="matrix(9.9626 0 0 -9.9626 383.441 223.316)" fill="#386af1"/><use xlink:href="#e" transform="matrix(9.9626 0 0 -9.9626 389.22 223.316)" fill="#386af1"/><use xlink:href="#f" transform="matrix(9.9626 0 0 -9.9626 393.912 225.488)" fill="#386af1"/><path d="M398.497 184.45h-25.81a3.985 3.985 0 0 0-3.985 3.986v8.085c0 2.201 1.784 3.985 3.985 3.985h25.81c2.2 0 3.985-1.784 3.985-3.985v-8.085c0-2.201-1.785-3.985-3.985-3.985zm-29.795 16.056" fill="#d7e1fc"/><path stroke-width=".399" stroke-miterlimit="10" fill="none" stroke="#386af1" d="M398.497 184.45h-25.81a3.985 3.985 0 0 0-3.985 3.986v8.085c0 2.201 1.784 3.985 3.985 3.985h25.81c2.2 0 3.985-1.784 3.985-3.985v-8.085c0-2.201-1.785-3.985-3.985-3.985zm-29.795 16.056"/><use xlink:href="#b" transform="matrix(9.9626 0 0 -9.9626 373.04 194.97)" fill="#386af1"/><use xlink:href="#c" transform="matrix(9.9626 0 0 -9.9626 378.43 196.435)" fill="#386af1"/><use xlink:href="#h" transform="matrix(9.9626 0 0 -9.9626 383.421 195.2)" fill="#386af1"/><use xlink:href="#e" transform="matrix(9.9626 0 0 -9.9626 389.22 194.97)" fill="#386af1"/><use xlink:href="#f" transform="matrix(9.9626 0 0 -9.9626 393.912 197.142)" fill="#386af1"/><path d="M398.497 99.41h-25.81a3.985 3.985 0 0 0-3.985 3.985v8.086c0 2.2 1.784 3.985 3.985 3.985h25.81c2.2 0 3.985-1.784 3.985-3.985v-8.086c0-2.2-1.785-3.985-3.985-3.985zm-29.795 16.056" fill="#d7e1fc"/><path stroke-width=".399" stroke-miterlimit="10" fill="none" stroke="#386af1" d="M398.497 99.41h-25.81a3.985 3.985 0 0 0-3.985 3.985v8.086c0 2.2 1.784 3.985 3.985 3.985h25.81c2.2 0 3.985-1.784 3.985-3.985v-8.086c0-2.2-1.785-3.985-3.985-3.985zm-29.795 16.056"/><use xlink:href="#b" transform="matrix(9.9626 0 0 -9.9626 373.04 109.931)" fill="#386af1"/><use xlink:href="#c" transform="matrix(9.9626 0 0 -9.9626 378.43 111.395)" fill="#386af1"/><use xlink:href="#j" transform="matrix(9.9626 0 0 -9.9626 383.53 110.16)" fill="#386af1"/><use xlink:href="#e" transform="matrix(9.9626 0 0 -9.9626 389.22 109.931)" fill="#386af1"/><use xlink:href="#f" transform="matrix(9.9626 0 0 -9.9626 393.912 112.103)" fill="#386af1"/><path d="M398.497 14.37h-25.81a3.985 3.985 0 0 0-3.985 3.985v8.086c0 2.2 1.784 3.985 3.985 3.985h25.81c2.2 0 3.985-1.785 3.985-3.985v-8.086c0-2.201-1.785-3.985-3.985-3.985zm-29.795 16.056" fill="#d7e1fc"/><path stroke-width=".399" stroke-miterlimit="10" fill="none" stroke="#386af1" d="M398.497 14.37h-25.81a3.985 3.985 0 0 0-3.985 3.985v8.086c0 2.2 1.784 3.985 3.985 3.985h25.81c2.2 0 3.985-1.785 3.985-3.985v-8.086c0-2.201-1.785-3.985-3.985-3.985zm-29.795 16.056"/><use xlink:href="#b" transform="matrix(9.9626 0 0 -9.9626 373.04 24.891)" fill="#386af1"/><use xlink:href="#c" transform="matrix(9.9626 0 0 -9.9626 378.43 26.355)" fill="#386af1"/><use xlink:href="#k" transform="matrix(9.9626 0 0 -9.9626 383.481 25.12)" fill="#386af1"/><use xlink:href="#e" transform="matrix(9.9626 0 0 -9.9626 389.22 24.891)" fill="#386af1"/><use xlink:href="#f" transform="matrix(9.9626 0 0 -9.9626 393.912 27.063)" fill="#386af1"/><path d="M327.63 269.491h-25.81a3.985 3.985 0 0 0-3.985 3.985v8.086c0 2.2 1.784 3.985 3.985 3.985h25.81c2.2 0 3.985-1.784 3.985-3.985v-8.086c0-2.2-1.785-3.985-3.986-3.985zm-29.795 16.056" fill="#d7e1fc"/><path stroke-width=".399" stroke-miterlimit="10" fill="none" stroke="#386af1" d="M327.63 269.491h-25.81a3.985 3.985 0 0 0-3.985 3.985v8.086c0 2.2 1.784 3.985 3.985 3.985h25.81c2.2 0 3.985-1.784 3.985-3.985v-8.086c0-2.2-1.785-3.985-3.986-3.985zm-29.795 16.056"/><use xlink:href="#g" transform="matrix(9.9626 0 0 -9.9626 301.497 280.009)" fill="#386af1"/><use xlink:href="#c" transform="matrix(9.9626 0 0 -9.9626 307.564 281.474)" fill="#386af1"/><use xlink:href="#d" transform="matrix(9.9626 0 0 -9.9626 312.665 280.238)" fill="#386af1"/><use xlink:href="#e" transform="matrix(9.9626 0 0 -9.9626 318.353 280.009)" fill="#386af1"/><use xlink:href="#f" transform="matrix(9.9626 0 0 -9.9626 323.046 282.18)" fill="#386af1"/><path d="M327.63 212.797h-25.81a3.985 3.985 0 0 0-3.985 3.986v8.085a3.985 3.985 0 0 0 3.985 3.985h25.81c2.2 0 3.985-1.784 3.985-3.985v-8.085a3.985 3.985 0 0 0-3.986-3.986zm-29.795 16.056" fill="#d7e1fc"/><path stroke-width=".399" stroke-miterlimit="10" fill="none" stroke="#386af1" d="M327.63 212.797h-25.81a3.985 3.985 0 0 0-3.985 3.986v8.085a3.985 3.985 0 0 0 3.985 3.985h25.81c2.2 0 3.985-1.784 3.985-3.985v-8.085a3.985 3.985 0 0 0-3.986-3.986zm-29.795 16.056"/><use xlink:href="#g" transform="matrix(9.9626 0 0 -9.9626 301.497 223.316)" fill="#386af1"/><use xlink:href="#c" transform="matrix(9.9626 0 0 -9.9626 307.564 224.78)" fill="#386af1"/><use xlink:href="#g" transform="matrix(9.9626 0 0 -9.9626 312.575 223.316)" fill="#386af1"/><use xlink:href="#e" transform="matrix(9.9626 0 0 -9.9626 318.353 223.316)" fill="#386af1"/><use xlink:href="#f" transform="matrix(9.9626 0 0 -9.9626 323.046 225.488)" fill="#386af1"/><path d="M327.63 184.45h-25.81a3.985 3.985 0 0 0-3.985 3.986v8.085c0 2.201 1.784 3.985 3.985 3.985h25.81c2.2 0 3.985-1.784 3.985-3.985v-8.085c0-2.201-1.785-3.985-3.986-3.985zm-29.795 16.056" fill="#d7e1fc"/><path stroke-width=".399" stroke-miterlimit="10" fill="none" stroke="#386af1" d="M327.63 184.45h-25.81a3.985 3.985 0 0 0-3.985 3.986v8.085c0 2.201 1.784 3.985 3.985 3.985h25.81c2.2 0 3.985-1.784 3.985-3.985v-8.085c0-2.201-1.785-3.985-3.986-3.985zm-29.795 16.056"/><use xlink:href="#g" transform="matrix(9.9626 0 0 -9.9626 301.497 194.97)" fill="#386af1"/><use xlink:href="#c" transform="matrix(9.9626 0 0 -9.9626 307.564 196.435)" fill="#386af1"/><use xlink:href="#h" transform="matrix(9.9626 0 0 -9.9626 312.555 195.2)" fill="#386af1"/><use xlink:href="#e" transform="matrix(9.9626 0 0 -9.9626 318.353 194.97)" fill="#386af1"/><use xlink:href="#f" transform="matrix(9.9626 0 0 -9.9626 323.046 197.142)" fill="#386af1"/><path d="M327.63 99.41h-25.81a3.985 3.985 0 0 0-3.985 3.985v8.086c0 2.2 1.784 3.985 3.985 3.985h25.81c2.2 0 3.985-1.784 3.985-3.985v-8.086c0-2.2-1.785-3.985-3.986-3.985zm-29.795 16.056" fill="#d7e1fc"/><path stroke-width=".399" stroke-miterlimit="10" fill="none" stroke="#386af1" d="M327.63 99.41h-25.81a3.985 3.985 0 0 0-3.985 3.985v8.086c0 2.2 1.784 3.985 3.985 3.985h25.81c2.2 0 3.985-1.784 3.985-3.985v-8.086c0-2.2-1.785-3.985-3.986-3.985zm-29.795 16.056"/><use xlink:href="#g" transform="matrix(9.9626 0 0 -9.9626 301.497 109.931)" fill="#386af1"/><use xlink:href="#c" transform="matrix(9.9626 0 0 -9.9626 307.564 111.395)" fill="#386af1"/><use xlink:href="#j" transform="matrix(9.9626 0 0 -9.9626 312.665 110.16)" fill="#386af1"/><use xlink:href="#e" transform="matrix(9.9626 0 0 -9.9626 318.353 109.931)" fill="#386af1"/><use xlink:href="#f" transform="matrix(9.9626 0 0 -9.9626 323.046 112.103)" fill="#386af1"/><path d="M327.63 14.37h-25.81a3.985 3.985 0 0 0-3.985 3.985v8.086c0 2.2 1.784 3.985 3.985 3.985h25.81c2.2 0 3.985-1.785 3.985-3.985v-8.086c0-2.201-1.785-3.985-3.986-3.985zm-29.795 16.056" fill="#d7e1fc"/><path stroke-width=".399" stroke-miterlimit="10" fill="none" stroke="#386af1" d="M327.63 14.37h-25.81a3.985 3.985 0 0 0-3.985 3.985v8.086c0 2.2 1.784 3.985 3.985 3.985h25.81c2.2 0 3.985-1.785 3.985-3.985v-8.086c0-2.201-1.785-3.985-3.986-3.985zm-29.795 16.056"/><use xlink:href="#g" transform="matrix(9.9626 0 0 -9.9626 301.497 24.891)" fill="#386af1"/><use xlink:href="#c" transform="matrix(9.9626 0 0 -9.9626 307.564 26.355)" fill="#386af1"/><use xlink:href="#k" transform="matrix(9.9626 0 0 -9.9626 312.615 25.12)" fill="#386af1"/><use xlink:href="#e" transform="matrix(9.9626 0 0 -9.9626 318.353 24.891)" fill="#386af1"/><use xlink:href="#f" transform="matrix(9.9626 0 0 -9.9626 323.046 27.063)" fill="#386af1"/><path d="M256.763 269.491h-25.81a3.985 3.985 0 0 0-3.985 3.985v8.086c0 2.2 1.784 3.985 3.985 3.985h25.81c2.2 0 3.985-1.784 3.985-3.985v-8.086c0-2.2-1.785-3.985-3.985-3.985zm-29.795 16.056" fill="#d7e1fc"/><path stroke-width=".399" stroke-miterlimit="10" fill="none" stroke="#386af1" d="M256.763 269.491h-25.81a3.985 3.985 0 0 0-3.985 3.985v8.086c0 2.2 1.784 3.985 3.985 3.985h25.81c2.2 0 3.985-1.784 3.985-3.985v-8.086c0-2.2-1.785-3.985-3.985-3.985zm-29.795 16.056"/><use xlink:href="#h" transform="matrix(9.9626 0 0 -9.9626 230.61 280.238)" fill="#386af1"/><use xlink:href="#c" transform="matrix(9.9626 0 0 -9.9626 236.698 281.474)" fill="#386af1"/><use xlink:href="#d" transform="matrix(9.9626 0 0 -9.9626 241.799 280.238)" fill="#386af1"/><use xlink:href="#e" transform="matrix(9.9626 0 0 -9.9626 247.487 280.009)" fill="#386af1"/><use xlink:href="#f" transform="matrix(9.9626 0 0 -9.9626 252.18 282.18)" fill="#386af1"/><path d="M256.763 212.797h-25.81a3.985 3.985 0 0 0-3.985 3.986v8.085a3.985 3.985 0 0 0 3.985 3.985h25.81c2.2 0 3.985-1.784 3.985-3.985v-8.085a3.985 3.985 0 0 0-3.985-3.986zm-29.795 16.056" fill="#d7e1fc"/><path stroke-width=".399" stroke-miterlimit="10" fill="none" stroke="#386af1" d="M256.763 212.797h-25.81a3.985 3.985 0 0 0-3.985 3.986v8.085a3.985 3.985 0 0 0 3.985 3.985h25.81c2.2 0 3.985-1.784 3.985-3.985v-8.085a3.985 3.985 0 0 0-3.985-3.986zm-29.795 16.056"/><use xlink:href="#h" transform="matrix(9.9626 0 0 -9.9626 230.61 223.545)" fill="#386af1"/><use xlink:href="#c" transform="matrix(9.9626 0 0 -9.9626 236.698 224.78)" fill="#386af1"/><use xlink:href="#g" transform="matrix(9.9626 0 0 -9.9626 241.71 223.316)" fill="#386af1"/><use xlink:href="#e" transform="matrix(9.9626 0 0 -9.9626 247.487 223.316)" fill="#386af1"/><use xlink:href="#f" transform="matrix(9.9626 0 0 -9.9626 252.18 225.488)" fill="#386af1"/><path d="M256.763 184.45h-25.81a3.985 3.985 0 0 0-3.985 3.986v8.085c0 2.201 1.784 3.985 3.985 3.985h25.81c2.2 0 3.985-1.784 3.985-3.985v-8.085c0-2.201-1.785-3.985-3.985-3.985zm-29.795 16.056" fill="#d7e1fc"/><path stroke-width=".399" stroke-miterlimit="10" fill="none" stroke="#386af1" d="M256.763 184.45h-25.81a3.985 3.985 0 0 0-3.985 3.986v8.085c0 2.201 1.784 3.985 3.985 3.985h25.81c2.2 0 3.985-1.784 3.985-3.985v-8.085c0-2.201-1.785-3.985-3.985-3.985zm-29.795 16.056"/><use xlink:href="#h" transform="matrix(9.9626 0 0 -9.9626 230.61 195.2)" fill="#386af1"/><use xlink:href="#c" transform="matrix(9.9626 0 0 -9.9626 236.698 196.435)" fill="#386af1"/><use xlink:href="#h" transform="matrix(9.9626 0 0 -9.9626 241.69 195.2)" fill="#386af1"/><use xlink:href="#e" transform="matrix(9.9626 0 0 -9.9626 247.487 194.97)" fill="#386af1"/><use xlink:href="#f" transform="matrix(9.9626 0 0 -9.9626 252.18 197.142)" fill="#386af1"/><path d="M256.763 99.41h-25.81a3.985 3.985 0 0 0-3.985 3.985v8.086c0 2.2 1.784 3.985 3.985 3.985h25.81c2.2 0 3.985-1.784 3.985-3.985v-8.086c0-2.2-1.785-3.985-3.985-3.985zm-29.795 16.056" fill="#d7e1fc"/><path stroke-width=".399" stroke-miterlimit="10" fill="none" stroke="#386af1" d="M256.763 99.41h-25.81a3.985 3.985 0 0 0-3.985 3.985v8.086c0 2.2 1.784 3.985 3.985 3.985h25.81c2.2 0 3.985-1.784 3.985-3.985v-8.086c0-2.2-1.785-3.985-3.985-3.985zm-29.795 16.056"/><use xlink:href="#h" transform="matrix(9.9626 0 0 -9.9626 230.61 110.16)" fill="#386af1"/><use xlink:href="#c" transform="matrix(9.9626 0 0 -9.9626 236.698 111.395)" fill="#386af1"/><use xlink:href="#j" transform="matrix(9.9626 0 0 -9.9626 241.799 110.16)" fill="#386af1"/><use xlink:href="#e" transform="matrix(9.9626 0 0 -9.9626 247.487 109.931)" fill="#386af1"/><use xlink:href="#f" transform="matrix(9.9626 0 0 -9.9626 252.18 112.103)" fill="#386af1"/><path d="M256.763 14.37h-25.81a3.985 3.985 0 0 0-3.985 3.985v8.086c0 2.2 1.784 3.985 3.985 3.985h25.81c2.2 0 3.985-1.785 3.985-3.985v-8.086c0-2.201-1.785-3.985-3.985-3.985zm-29.795 16.056" fill="#d7e1fc"/><path stroke-width=".399" stroke-miterlimit="10" fill="none" stroke="#386af1" d="M256.763 14.37h-25.81a3.985 3.985 0 0 0-3.985 3.985v8.086c0 2.2 1.784 3.985 3.985 3.985h25.81c2.2 0 3.985-1.785 3.985-3.985v-8.086c0-2.201-1.785-3.985-3.985-3.985zm-29.795 16.056"/><use xlink:href="#h" transform="matrix(9.9626 0 0 -9.9626 230.61 25.12)" fill="#386af1"/><use xlink:href="#c" transform="matrix(9.9626 0 0 -9.9626 236.698 26.355)" fill="#386af1"/><use xlink:href="#k" transform="matrix(9.9626 0 0 -9.9626 241.749 25.12)" fill="#386af1"/><use xlink:href="#e" transform="matrix(9.9626 0 0 -9.9626 247.487 24.891)" fill="#386af1"/><use xlink:href="#f" transform="matrix(9.9626 0 0 -9.9626 252.18 27.063)" fill="#386af1"/><path d="M185.895 212.797h-25.809a3.985 3.985 0 0 0-3.985 3.986v8.085a3.985 3.985 0 0 0 3.985 3.985h25.81a3.985 3.985 0 0 0 3.985-3.985v-8.085a3.985 3.985 0 0 0-3.986-3.986zm-29.794 16.056" fill="#d7e1fc"/><path stroke-width=".399" stroke-miterlimit="10" fill="none" stroke="#386af1" d="M185.895 212.797h-25.809a3.985 3.985 0 0 0-3.985 3.986v8.085a3.985 3.985 0 0 0 3.985 3.985h25.81a3.985 3.985 0 0 0 3.985-3.985v-8.085a3.985 3.985 0 0 0-3.986-3.986zm-29.794 16.056"/><use xlink:href="#i" transform="matrix(9.9626 0 0 -9.9626 159.705 223.316)" fill="#386af1"/><use xlink:href="#c" transform="matrix(9.9626 0 0 -9.9626 165.832 224.78)" fill="#386af1"/><use xlink:href="#g" transform="matrix(9.9626 0 0 -9.9626 170.843 223.316)" fill="#386af1"/><use xlink:href="#e" transform="matrix(9.9626 0 0 -9.9626 176.621 223.316)" fill="#386af1"/><use xlink:href="#f" transform="matrix(9.9626 0 0 -9.9626 181.314 225.488)" fill="#386af1"/><path d="M185.895 99.41h-25.809a3.985 3.985 0 0 0-3.985 3.985v8.086c0 2.2 1.784 3.985 3.985 3.985h25.81a3.985 3.985 0 0 0 3.985-3.985v-8.086c0-2.2-1.785-3.985-3.986-3.985zm-29.794 16.056" fill="#d7e1fc"/><path stroke-width=".399" stroke-miterlimit="10" fill="none" stroke="#386af1" d="M185.895 99.41h-25.809a3.985 3.985 0 0 0-3.985 3.985v8.086c0 2.2 1.784 3.985 3.985 3.985h25.81a3.985 3.985 0 0 0 3.985-3.985v-8.086c0-2.2-1.785-3.985-3.986-3.985zm-29.794 16.056"/><use xlink:href="#i" transform="matrix(9.9626 0 0 -9.9626 159.705 109.931)" fill="#386af1"/><use xlink:href="#c" transform="matrix(9.9626 0 0 -9.9626 165.832 111.395)" fill="#386af1"/><use xlink:href="#j" transform="matrix(9.9626 0 0 -9.9626 170.933 110.16)" fill="#386af1"/><use xlink:href="#e" transform="matrix(9.9626 0 0 -9.9626 176.621 109.931)" fill="#386af1"/><use xlink:href="#f" transform="matrix(9.9626 0 0 -9.9626 181.314 112.103)" fill="#386af1"/><path d="M185.895 14.37h-25.809a3.985 3.985 0 0 0-3.985 3.985v8.086c0 2.2 1.784 3.985 3.985 3.985h25.81a3.985 3.985 0 0 0 3.985-3.985v-8.086c0-2.201-1.785-3.985-3.986-3.985zm-29.794 16.056" fill="#d7e1fc"/><path stroke-width=".399" stroke-miterlimit="10" fill="none" stroke="#386af1" d="M185.895 14.37h-25.809a3.985 3.985 0 0 0-3.985 3.985v8.086c0 2.2 1.784 3.985 3.985 3.985h25.81a3.985 3.985 0 0 0 3.985-3.985v-8.086c0-2.201-1.785-3.985-3.986-3.985zm-29.794 16.056"/><use xlink:href="#i" transform="matrix(9.9626 0 0 -9.9626 159.705 24.891)" fill="#386af1"/><use xlink:href="#c" transform="matrix(9.9626 0 0 -9.9626 165.832 26.355)" fill="#386af1"/><use xlink:href="#k" transform="matrix(9.9626 0 0 -9.9626 170.883 25.12)" fill="#386af1"/><use xlink:href="#e" transform="matrix(9.9626 0 0 -9.9626 176.621 24.891)" fill="#386af1"/><use xlink:href="#f" transform="matrix(9.9626 0 0 -9.9626 181.314 27.063)" fill="#386af1"/><path d="M115.028 99.41H89.22a3.985 3.985 0 0 0-3.985 3.985v8.086c0 2.2 1.784 3.985 3.985 3.985h25.81a3.985 3.985 0 0 0 3.985-3.985v-8.086c0-2.2-1.785-3.985-3.986-3.985zm-29.794 16.056" fill="#d7e1fc"/><path stroke-width=".399" stroke-miterlimit="10" fill="none" stroke="#386af1" d="M115.028 99.41H89.22a3.985 3.985 0 0 0-3.985 3.985v8.086c0 2.2 1.784 3.985 3.985 3.985h25.81a3.985 3.985 0 0 0 3.985-3.985v-8.086c0-2.2-1.785-3.985-3.986-3.985zm-29.794 16.056"/><symbol id="l"><path d="M.441.732H.075L.022.346h.081c.041.049.075.066.13.066.095 0 .155-.065.155-.17C.388.14.329.078.233.078.156.078.109.117.088.197H0C.012.139.022.111.043.085A.236.236 0 0 1 .235 0c.143 0 .243.104.243.254C.478.394.385.49.249.49A.208.208 0 0 1 .118.447l.028.198h.295v.087z"/></symbol><use xlink:href="#l" transform="matrix(9.9626 0 0 -9.9626 88.909 110.16)" fill="#386af1"/><use xlink:href="#c" transform="matrix(9.9626 0 0 -9.9626 94.966 111.395)" fill="#386af1"/><use xlink:href="#j" transform="matrix(9.9626 0 0 -9.9626 100.067 110.16)" fill="#386af1"/><use xlink:href="#e" transform="matrix(9.9626 0 0 -9.9626 105.755 109.931)" fill="#386af1"/><use xlink:href="#f" transform="matrix(9.9626 0 0 -9.9626 110.448 112.103)" fill="#386af1"/><path d="M115.028 14.37H89.22a3.985 3.985 0 0 0-3.985 3.985v8.086c0 2.2 1.784 3.985 3.985 3.985h25.81a3.985 3.985 0 0 0 3.985-3.985v-8.086c0-2.201-1.785-3.985-3.986-3.985zM85.234 30.426" fill="#d7e1fc"/><path stroke-width=".399" stroke-miterlimit="10" fill="none" stroke="#386af1" d="M115.028 14.37H89.22a3.985 3.985 0 0 0-3.985 3.985v8.086c0 2.2 1.784 3.985 3.985 3.985h25.81a3.985 3.985 0 0 0 3.985-3.985v-8.086c0-2.201-1.785-3.985-3.986-3.985zM85.234 30.426"/><use xlink:href="#l" transform="matrix(9.9626 0 0 -9.9626 88.909 25.12)" fill="#386af1"/><use xlink:href="#c" transform="matrix(9.9626 0 0 -9.9626 94.966 26.355)" fill="#386af1"/><use xlink:href="#k" transform="matrix(9.9626 0 0 -9.9626 100.017 25.12)" fill="#386af1"/><use xlink:href="#e" transform="matrix(9.9626 0 0 -9.9626 105.755 24.891)" fill="#386af1"/><use xlink:href="#f" transform="matrix(9.9626 0 0 -9.9626 110.448 27.063)" fill="#386af1"/><path d="M44.161 14.37H18.352a3.985 3.985 0 0 0-3.985 3.985v8.086c0 2.2 1.784 3.985 3.985 3.985h25.81c2.2 0 3.985-1.785 3.985-3.985v-8.086c0-2.201-1.785-3.985-3.986-3.985zM14.367 30.426" fill="#d7e1fc"/><path stroke-width=".399" stroke-miterlimit="10" fill="none" stroke="#386af1" d="M44.161 14.37H18.352a3.985 3.985 0 0 0-3.985 3.985v8.086c0 2.2 1.784 3.985 3.985 3.985h25.81c2.2 0 3.985-1.785 3.985-3.985v-8.086c0-2.201-1.785-3.985-3.986-3.985zM14.367 30.426"/><use xlink:href="#j" transform="matrix(9.9626 0 0 -9.9626 18.121 25.12)" fill="#386af1"/><use xlink:href="#c" transform="matrix(9.9626 0 0 -9.9626 24.099 26.355)" fill="#386af1"/><use xlink:href="#k" transform="matrix(9.9626 0 0 -9.9626 29.15 25.12)" fill="#386af1"/><use xlink:href="#e" transform="matrix(9.9626 0 0 -9.9626 34.888 24.891)" fill="#386af1"/><use xlink:href="#f" transform="matrix(9.9626 0 0 -9.9626 39.58 27.063)" fill="#386af1"/><path stroke-width=".399" stroke-miterlimit="10" fill="none" stroke="#e05048" d="M473.548 277.519h26.626"/><path d="m507.757 277.519-7.483-1.925v3.85z" fill="#e05048"/><path stroke-width=".399" stroke-miterlimit="10" fill="none" stroke="#e05048" d="m507.757 277.519-7.483-1.925v3.85zM473.548 249.172h26.626"/><path d="m507.757 249.172-7.483-1.925v3.85z" fill="#e05048"/><path stroke-width=".399" stroke-miterlimit="10" fill="none" stroke="#e05048" d="m507.757 249.172-7.483-1.925v3.85zM473.548 220.825h26.626"/><path d="m507.757 220.825-7.483-1.924v3.849z" fill="#e05048"/><path stroke-width=".399" stroke-miterlimit="10" fill="none" stroke="#e05048" d="m507.757 220.825-7.483-1.924v3.849zM473.548 192.479h26.626"/><path d="m507.757 192.479-7.483-1.925v3.849z" fill="#e05048"/><path stroke-width=".399" stroke-miterlimit="10" fill="none" stroke="#e05048" d="m507.757 192.479-7.483-1.925v3.849zM473.548 164.132h26.626"/><path d="m507.757 164.132-7.483-1.925v3.85z" fill="#e05048"/><path stroke-width=".399" stroke-miterlimit="10" fill="none" stroke="#e05048" d="m507.757 164.132-7.483-1.925v3.85zM473.548 107.438h26.626"/><path d="m507.757 107.438-7.483-1.925v3.85z" fill="#e05048"/><path stroke-width=".399" stroke-miterlimit="10" fill="none" stroke="#e05048" d="m507.757 107.438-7.483-1.925v3.85zM473.548 22.398h26.626"/><path d="m507.757 22.398-7.483-1.925v3.85z" fill="#e05048"/><path stroke-width=".399" stroke-miterlimit="10" fill="none" stroke="#e05048" d="m507.757 22.398-7.483-1.925v3.85zM402.68 277.519h28.286"/><path d="m438.549 277.519-7.484-1.925v3.85z" fill="#e05048"/><path stroke-width=".399" stroke-miterlimit="10" fill="none" stroke="#e05048" d="m438.549 277.519-7.484-1.925v3.85zM402.68 249.172h28.286"/><path d="m438.549 249.172-7.484-1.925v3.85z" fill="#e05048"/><path stroke-width=".399" stroke-miterlimit="10" fill="none" stroke="#e05048" d="m438.549 249.172-7.484-1.925v3.85zM402.68 220.825h28.286"/><path d="m438.549 220.825-7.484-1.924v3.849z" fill="#e05048"/><path stroke-width=".399" stroke-miterlimit="10" fill="none" stroke="#e05048" d="m438.549 220.825-7.484-1.924v3.849zM402.68 192.479h28.286"/><path d="m438.549 192.479-7.484-1.925v3.849z" fill="#e05048"/><path stroke-width=".399" stroke-miterlimit="10" fill="none" stroke="#e05048" d="m438.549 192.479-7.484-1.925v3.849zM402.68 107.438h28.286"/><path d="m438.549 107.438-7.484-1.925v3.85z" fill="#e05048"/><path stroke-width=".399" stroke-miterlimit="10" fill="none" stroke="#e05048" d="m438.549 107.438-7.484-1.925v3.85zM402.68 22.398h28.286"/><path d="m438.549 22.398-7.484-1.925v3.85z" fill="#e05048"/><path stroke-width=".399" stroke-miterlimit="10" fill="none" stroke="#e05048" d="m438.549 22.398-7.484-1.925v3.85zM331.814 277.519h28.285"/><path d="m367.682 277.519-7.484-1.925v3.85z" fill="#e05048"/><path stroke-width=".399" stroke-miterlimit="10" fill="none" stroke="#e05048" d="m367.682 277.519-7.484-1.925v3.85zM331.814 220.825h28.285"/><path d="m367.682 220.825-7.484-1.924v3.849z" fill="#e05048"/><path stroke-width=".399" stroke-miterlimit="10" fill="none" stroke="#e05048" d="m367.682 220.825-7.484-1.924v3.849zM331.814 192.479h28.285"/><path d="m367.682 192.479-7.484-1.925v3.849z" fill="#e05048"/><path stroke-width=".399" stroke-miterlimit="10" fill="none" stroke="#e05048" d="m367.682 192.479-7.484-1.925v3.849zM331.814 107.438h28.285"/><path d="m367.682 107.438-7.484-1.925v3.85z" fill="#e05048"/><path stroke-width=".399" stroke-miterlimit="10" fill="none" stroke="#e05048" d="m367.682 107.438-7.484-1.925v3.85zM331.814 22.398h28.285"/><path d="m367.682 22.398-7.484-1.925v3.85z" fill="#e05048"/><path stroke-width=".399" stroke-miterlimit="10" fill="none" stroke="#e05048" d="m367.682 22.398-7.484-1.925v3.85zM260.947 277.519h28.285"/><path d="m296.815 277.519-7.484-1.925v3.85z" fill="#e05048"/><path stroke-width=".399" stroke-miterlimit="10" fill="none" stroke="#e05048" d="m296.815 277.519-7.484-1.925v3.85zM260.947 220.825h28.285"/><path d="m296.815 220.825-7.484-1.924v3.849z" fill="#e05048"/><path stroke-width=".399" stroke-miterlimit="10" fill="none" stroke="#e05048" d="m296.815 220.825-7.484-1.924v3.849zM260.947 192.479h28.285"/><path d="m296.815 192.479-7.484-1.925v3.849z" fill="#e05048"/><path stroke-width=".399" stroke-miterlimit="10" fill="none" stroke="#e05048" d="m296.815 192.479-7.484-1.925v3.849zM260.947 107.438h28.285"/><path d="m296.815 107.438-7.484-1.925v3.85z" fill="#e05048"/><path stroke-width=".399" stroke-miterlimit="10" fill="none" stroke="#e05048" d="m296.815 107.438-7.484-1.925v3.85zM260.947 22.398h28.285"/><path d="m296.815 22.398-7.484-1.925v3.85z" fill="#e05048"/><path stroke-width=".399" stroke-miterlimit="10" fill="none" stroke="#e05048" d="m296.815 22.398-7.484-1.925v3.85zM190.08 220.825h28.285"/><path d="m225.948 220.825-7.484-1.924v3.849z" fill="#e05048"/><path stroke-width=".399" stroke-miterlimit="10" fill="none" stroke="#e05048" d="m225.948 220.825-7.484-1.924v3.849zM190.08 107.438h28.285"/><path d="m225.948 107.438-7.484-1.925v3.85z" fill="#e05048"/><path stroke-width=".399" stroke-miterlimit="10" fill="none" stroke="#e05048" d="m225.948 107.438-7.484-1.925v3.85zM190.08 22.398h28.285"/><path d="m225.948 22.398-7.484-1.925v3.85z" fill="#e05048"/><path stroke-width=".399" stroke-miterlimit="10" fill="none" stroke="#e05048" d="m225.948 22.398-7.484-1.925v3.85zM119.213 107.438h28.285"/><path d="m155.08 107.438-7.483-1.925v3.85z" fill="#e05048"/><path stroke-width=".399" stroke-miterlimit="10" fill="none" stroke="#e05048" d="m155.08 107.438-7.483-1.925v3.85zM119.213 22.398h28.285"/><path d="m155.08 22.398-7.483-1.925v3.85z" fill="#e05048"/><path stroke-width=".399" stroke-miterlimit="10" fill="none" stroke="#e05048" d="m155.08 22.398-7.483-1.925v3.85zM48.346 22.398H76.63"/><path d="m84.213 22.398-7.483-1.925v3.85z" fill="#e05048"/><path stroke-width=".399" stroke-miterlimit="10" fill="none" stroke="#e05048" d="m84.213 22.398-7.483-1.925v3.85zM48.346 22.398c36.268 0 .421 85.04 28.285 85.04"/><path d="m84.213 107.438-7.483-1.925v3.85z" fill="#e05048"/><path stroke-width=".399" stroke-miterlimit="10" fill="none" stroke="#e05048" d="m84.213 107.438-7.483-1.925v3.85z"/><path d="M72.169 35.008H58.652a3.985 3.985 0 0 0-3.986 3.986v3.546c0 2.201 1.785 3.985 3.986 3.985h13.517a3.985 3.985 0 0 0 3.985-3.985v-3.546c0-2.201-1.784-3.986-3.985-3.986zM54.666 46.525" fill="#f8dcda"/><path stroke-width=".399" stroke-miterlimit="10" fill="none" stroke="#e05048" d="M72.169 35.008H58.652a3.985 3.985 0 0 0-3.986 3.986v3.546c0 2.201 1.785 3.985 3.986 3.985h13.517a3.985 3.985 0 0 0 3.985-3.985v-3.546c0-2.201-1.784-3.986-3.985-3.986zM54.666 46.525"/><symbol id="m"><path d="M.484.277H.277v.207h-.07V.277H0v-.07h.207V0h.07v.207h.207v.07z"/></symbol><use xlink:href="#m" transform="matrix(7.9701 0 0 -7.9701 57.063 42.842)" fill="#e05048"/><use xlink:href="#h" transform="matrix(7.9701 0 0 -7.9701 61.574 42.945)" fill="#e05048"/><use xlink:href="#e" transform="matrix(7.9701 0 0 -7.9701 66.212 42.762)" fill="#e05048"/><use xlink:href="#f" transform="matrix(7.9701 0 0 -7.9701 69.966 44.5)" fill="#e05048"/><path stroke-width=".399" stroke-miterlimit="10" fill="none" stroke="#e05048" d="M119.213 22.398c78.916 0-42.227 198.427 28.285 198.427"/><path d="m155.08 220.825-7.483-1.924v3.849z" fill="#e05048"/><path stroke-width=".399" stroke-miterlimit="10" fill="none" stroke="#e05048" d="m155.08 220.825-7.483-1.924v3.849z"/><path d="M153.783 59.5h-13.517a3.985 3.985 0 0 0-3.985 3.986v3.546c0 2.201 1.784 3.985 3.985 3.985h13.517c2.201 0 3.985-1.784 3.985-3.985v-3.546c0-2.201-1.784-3.986-3.985-3.986zm-17.502 11.517" fill="#f8dcda"/><path stroke-width=".399" stroke-miterlimit="10" fill="none" stroke="#e05048" d="M153.783 59.5h-13.517a3.985 3.985 0 0 0-3.985 3.986v3.546c0 2.201 1.784 3.985 3.985 3.985h13.517c2.201 0 3.985-1.784 3.985-3.985v-3.546c0-2.201-1.784-3.986-3.985-3.986zm-17.502 11.517"/><symbol id="n"><path d="M.474.709H0V.622h.383C.214.381.145.233.092 0h.094c.039.227.128.422.288.635v.074z"/></symbol><use xlink:href="#m" transform="matrix(7.9701 0 0 -7.9701 138.675 67.334)" fill="#e05048"/><use xlink:href="#n" transform="matrix(7.9701 0 0 -7.9701 143.298 67.254)" fill="#e05048"/><use xlink:href="#e" transform="matrix(7.9701 0 0 -7.9701 147.825 67.254)" fill="#e05048"/><use xlink:href="#f" transform="matrix(7.9701 0 0 -7.9701 151.58 68.991)" fill="#e05048"/><path stroke-width=".399" stroke-miterlimit="10" fill="none" stroke="#e05048" d="M190.08 22.398c67.912 0-31.223 170.08 28.285 170.08"/><path d="m225.948 192.479-7.484-1.925v3.849z" fill="#e05048"/><path stroke-width=".399" stroke-miterlimit="10" fill="none" stroke="#e05048" d="m225.948 192.479-7.484-1.925v3.849z"/><path d="M221.877 53.377H208.36a3.985 3.985 0 0 0-3.985 3.986v3.546c0 2.201 1.784 3.985 3.985 3.985h13.517c2.201 0 3.985-1.784 3.985-3.985v-3.546c0-2.201-1.784-3.986-3.985-3.986zm-17.502 11.517" fill="#f8dcda"/><path stroke-width=".399" stroke-miterlimit="10" fill="none" stroke="#e05048" d="M221.877 53.377H208.36a3.985 3.985 0 0 0-3.985 3.986v3.546c0 2.201 1.784 3.985 3.985 3.985h13.517c2.201 0 3.985-1.784 3.985-3.985v-3.546c0-2.201-1.784-3.986-3.985-3.986zm-17.502 11.517"/><use xlink:href="#m" transform="matrix(7.9701 0 0 -7.9701 206.77 61.21)" fill="#e05048"/><use xlink:href="#j" transform="matrix(7.9701 0 0 -7.9701 211.368 61.314)" fill="#e05048"/><use xlink:href="#e" transform="matrix(7.9701 0 0 -7.9701 215.92 61.131)" fill="#e05048"/><use xlink:href="#f" transform="matrix(7.9701 0 0 -7.9701 219.673 62.868)" fill="#e05048"/><path stroke-width=".399" stroke-miterlimit="10" fill="none" stroke="#e05048" d="M190.08 107.438c67.912 0-31.223 170.081 28.285 170.081"/><path d="m225.948 277.519-7.484-1.925v3.85z" fill="#e05048"/><path stroke-width=".399" stroke-miterlimit="10" fill="none" stroke="#e05048" d="m225.948 277.519-7.484-1.925v3.85z"/><path d="M221.877 138.418H208.36a3.985 3.985 0 0 0-3.985 3.985v3.547c0 2.2 1.784 3.985 3.985 3.985h13.517c2.201 0 3.985-1.784 3.985-3.985v-3.547c0-2.201-1.784-3.985-3.985-3.985zm-17.502 11.517" fill="#f8dcda"/><path stroke-width=".399" stroke-miterlimit="10" fill="none" stroke="#e05048" d="M221.877 138.418H208.36a3.985 3.985 0 0 0-3.985 3.985v3.547c0 2.2 1.784 3.985 3.985 3.985h13.517c2.201 0 3.985-1.784 3.985-3.985v-3.547c0-2.201-1.784-3.985-3.985-3.985zm-17.502 11.517"/><use xlink:href="#m" transform="matrix(7.9701 0 0 -7.9701 206.77 146.25)" fill="#e05048"/><use xlink:href="#j" transform="matrix(7.9701 0 0 -7.9701 211.368 146.353)" fill="#e05048"/><use xlink:href="#e" transform="matrix(7.9701 0 0 -7.9701 215.92 146.17)" fill="#e05048"/><use xlink:href="#f" transform="matrix(7.9701 0 0 -7.9701 219.673 147.907)" fill="#e05048"/><path stroke-width=".399" stroke-miterlimit="10" fill="none" stroke="#e05048" d="M260.947 22.398c100.665 0-63.976 255.121 28.285 255.121"/><path d="m296.815 277.519-7.484-1.925v3.85z" fill="#e05048"/><path stroke-width=".399" stroke-miterlimit="10" fill="none" stroke="#e05048" d="m296.815 277.519-7.484-1.925v3.85z"/><path d="M300.998 71.747H287.48a3.985 3.985 0 0 0-3.986 3.985v3.546a3.985 3.985 0 0 0 3.986 3.985h13.517c2.2 0 3.985-1.784 3.985-3.985v-3.546c0-2.201-1.784-3.985-3.985-3.985zm-17.503 11.516" fill="#f8dcda"/><path stroke-width=".399" stroke-miterlimit="10" fill="none" stroke="#e05048" d="M300.998 71.747H287.48a3.985 3.985 0 0 0-3.986 3.985v3.546a3.985 3.985 0 0 0 3.986 3.985h13.517c2.2 0 3.985-1.784 3.985-3.985v-3.546c0-2.201-1.784-3.985-3.985-3.985zm-17.503 11.516"/><use xlink:href="#m" transform="matrix(7.9701 0 0 -7.9701 285.889 79.58)" fill="#e05048"/><use xlink:href="#k" transform="matrix(7.9701 0 0 -7.9701 290.447 79.683)" fill="#e05048"/><use xlink:href="#e" transform="matrix(7.9701 0 0 -7.9701 295.038 79.5)" fill="#e05048"/><use xlink:href="#f" transform="matrix(7.9701 0 0 -7.9701 298.792 81.237)" fill="#e05048"/><path stroke-width=".399" stroke-miterlimit="10" fill="none" stroke="#e05048" d="M331.814 22.398c89.834 0-53.145 226.774 28.285 226.774"/><path d="m367.682 249.172-7.484-1.925v3.85z" fill="#e05048"/><path stroke-width=".399" stroke-miterlimit="10" fill="none" stroke="#e05048" d="m367.682 249.172-7.484-1.925v3.85z"/><path d="M369.135 65.623h-13.517a3.985 3.985 0 0 0-3.985 3.986v3.546c0 2.201 1.784 3.985 3.985 3.985h13.517c2.201 0 3.986-1.784 3.986-3.985V69.61c0-2.201-1.785-3.986-3.986-3.986zM351.633 77.14" fill="#f8dcda"/><path stroke-width=".399" stroke-miterlimit="10" fill="none" stroke="#e05048" d="M369.135 65.623h-13.517a3.985 3.985 0 0 0-3.985 3.986v3.546c0 2.201 1.784 3.985 3.985 3.985h13.517c2.201 0 3.986-1.784 3.986-3.985V69.61c0-2.201-1.785-3.986-3.986-3.986zM351.633 77.14"/><symbol id="o"><path d="M.354.396c.073.044.097.08.097.147 0 .111-.087.189-.213.189C.113.732.025.654.025.543c0-.066.024-.102.096-.147C.04.357 0 .298 0 .22 0 .09.098 0 .238 0c.14 0 .238.09.238.219 0 .079-.04.138-.122.177M.238.654C.313.654.361.61.361.541c0-.066-.049-.11-.123-.11S.115.475.115.542c0 .068.049.112.123.112m0-.297C.326.357.386.301.386.218c0-.084-.06-.14-.15-.14C.15.078.09.135.09.218c0 .083.06.139.148.139z"/></symbol><use xlink:href="#m" transform="matrix(7.9701 0 0 -7.9701 354.026 73.457)" fill="#e05048"/><use xlink:href="#o" transform="matrix(7.9701 0 0 -7.9701 358.576 73.56)" fill="#e05048"/><use xlink:href="#e" transform="matrix(7.9701 0 0 -7.9701 363.175 73.377)" fill="#e05048"/><use xlink:href="#f" transform="matrix(7.9701 0 0 -7.9701 366.93 75.114)" fill="#e05048"/><path stroke-width=".399" stroke-miterlimit="10" fill="none" stroke="#e05048" d="M402.68 22.398c57.279 0-20.588 141.734 28.286 141.734"/><path d="m438.549 164.132-7.484-1.925v3.85z" fill="#e05048"/><path stroke-width=".399" stroke-miterlimit="10" fill="none" stroke="#e05048" d="m438.549 164.132-7.484-1.925v3.85z"/><path d="M431.799 47.254H418.28a3.985 3.985 0 0 0-3.985 3.986v3.546c0 2.201 1.784 3.985 3.985 3.985H431.8c2.2 0 3.985-1.784 3.985-3.985V51.24c0-2.201-1.785-3.986-3.985-3.986zm-17.503 11.517" fill="#f8dcda"/><path stroke-width=".399" stroke-miterlimit="10" fill="none" stroke="#e05048" d="M431.799 47.254H418.28a3.985 3.985 0 0 0-3.985 3.986v3.546c0 2.201 1.784 3.985 3.985 3.985H431.8c2.2 0 3.985-1.784 3.985-3.985V51.24c0-2.201-1.785-3.986-3.985-3.986zm-17.503 11.517"/><use xlink:href="#m" transform="matrix(7.9701 0 0 -7.9701 416.688 55.088)" fill="#e05048"/><use xlink:href="#l" transform="matrix(7.9701 0 0 -7.9701 421.223 55.191)" fill="#e05048"/><use xlink:href="#e" transform="matrix(7.9701 0 0 -7.9701 425.837 55.008)" fill="#e05048"/><use xlink:href="#f" transform="matrix(7.9701 0 0 -7.9701 429.591 56.745)" fill="#e05048"/><path stroke-width=".399" stroke-miterlimit="10" fill="none" stroke="#e05048" d="M402.68 107.438c57.279 0-20.588 141.734 28.286 141.734"/><path d="m438.549 249.172-7.484-1.925v3.85z" fill="#e05048"/><path stroke-width=".399" stroke-miterlimit="10" fill="none" stroke="#e05048" d="m438.549 249.172-7.484-1.925v3.85z"/><path d="M431.799 132.295H418.28a3.985 3.985 0 0 0-3.985 3.985v3.547c0 2.2 1.784 3.985 3.985 3.985H431.8c2.2 0 3.985-1.784 3.985-3.985v-3.547c0-2.201-1.785-3.985-3.985-3.985zm-17.503 11.517" fill="#f8dcda"/><path stroke-width=".399" stroke-miterlimit="10" fill="none" stroke="#e05048" d="M431.799 132.295H418.28a3.985 3.985 0 0 0-3.985 3.985v3.547c0 2.2 1.784 3.985 3.985 3.985H431.8c2.2 0 3.985-1.784 3.985-3.985v-3.547c0-2.201-1.785-3.985-3.985-3.985zm-17.503 11.517"/><use xlink:href="#m" transform="matrix(7.9701 0 0 -7.9701 416.688 140.127)" fill="#e05048"/><use xlink:href="#l" transform="matrix(7.9701 0 0 -7.9701 421.223 140.23)" fill="#e05048"/><use xlink:href="#e" transform="matrix(7.9701 0 0 -7.9701 425.837 140.047)" fill="#e05048"/><use xlink:href="#f" transform="matrix(7.9701 0 0 -7.9701 429.591 141.785)" fill="#e05048"/><path stroke-width=".399" stroke-miterlimit="10" fill="none" stroke="#e05048" d="M473.548 22.398c67.912 0-32.882 170.08 26.626 170.08"/><path d="m507.757 192.479-7.483-1.925v3.849z" fill="#e05048"/><path stroke-width=".399" stroke-miterlimit="10" fill="none" stroke="#e05048" d="m507.757 192.479-7.483-1.925v3.849z"/><path d="M504.987 53.377H491.47a3.985 3.985 0 0 0-3.986 3.986v3.546c0 2.201 1.785 3.985 3.986 3.985h13.517c2.2 0 3.985-1.784 3.985-3.985v-3.546c0-2.201-1.784-3.986-3.985-3.986zm-17.503 11.517" fill="#f8dcda"/><path stroke-width=".399" stroke-miterlimit="10" fill="none" stroke="#e05048" d="M504.987 53.377H491.47a3.985 3.985 0 0 0-3.986 3.986v3.546c0 2.201 1.785 3.985 3.986 3.985h13.517c2.2 0 3.985-1.784 3.985-3.985v-3.546c0-2.201-1.784-3.986-3.985-3.986zm-17.503 11.517"/><use xlink:href="#m" transform="matrix(7.9701 0 0 -7.9701 489.876 61.21)" fill="#e05048"/><use xlink:href="#j" transform="matrix(7.9701 0 0 -7.9701 494.474 61.314)" fill="#e05048"/><use xlink:href="#e" transform="matrix(7.9701 0 0 -7.9701 499.025 61.131)" fill="#e05048"/><use xlink:href="#f" transform="matrix(7.9701 0 0 -7.9701 502.78 62.868)" fill="#e05048"/><path stroke-width=".399" stroke-miterlimit="10" fill="none" stroke="#e05048" d="M473.548 107.438c67.912 0-32.882 170.081 26.626 170.081"/><path d="m507.757 277.519-7.483-1.925v3.85z" fill="#e05048"/><path stroke-width=".399" stroke-miterlimit="10" fill="none" stroke="#e05048" d="m507.757 277.519-7.483-1.925v3.85z"/><path d="M504.987 138.418H491.47a3.985 3.985 0 0 0-3.986 3.985v3.547c0 2.2 1.785 3.985 3.986 3.985h13.517c2.2 0 3.985-1.784 3.985-3.985v-3.547c0-2.201-1.784-3.985-3.985-3.985zm-17.503 11.517" fill="#f8dcda"/><path stroke-width=".399" stroke-miterlimit="10" fill="none" stroke="#e05048" d="M504.987 138.418H491.47a3.985 3.985 0 0 0-3.986 3.985v3.547c0 2.2 1.785 3.985 3.986 3.985h13.517c2.2 0 3.985-1.784 3.985-3.985v-3.547c0-2.201-1.784-3.985-3.985-3.985zm-17.503 11.517"/><use xlink:href="#m" transform="matrix(7.9701 0 0 -7.9701 489.876 146.25)" fill="#e05048"/><use xlink:href="#j" transform="matrix(7.9701 0 0 -7.9701 494.474 146.353)" fill="#e05048"/><use xlink:href="#e" transform="matrix(7.9701 0 0 -7.9701 499.025 146.17)" fill="#e05048"/><use xlink:href="#f" transform="matrix(7.9701 0 0 -7.9701 502.78 147.907)" fill="#e05048"/></svg>