<svg xmlns="http://www.w3.org/2000/svg" xmlns:xlink="http://www.w3.org/1999/xlink" width="516.445" height="145.575" viewBox="0 0 387.334 109.181"><path d="M32.804 60.118a9.216 9.216 0 0 0-9.216-9.216 9.216 9.216 0 0 0-9.216 9.216 9.216 9.216 0 0 0 9.216 9.216 9.216 9.216 0 0 0 9.216-9.216zm-9.216 0" fill="#d7e1fc"/><path stroke-width=".399" stroke-miterlimit="10" fill="none" stroke="#386af1" d="M32.804 60.118a9.216 9.216 0 0 0-9.216-9.216 9.216 9.216 0 0 0-9.216 9.216 9.216 9.216 0 0 0 9.216 9.216 9.216 9.216 0 0 0 9.216-9.216zm-9.216 0"/><symbol id="a"><path d="M.455.547C.438.663.362.732.254.732a.226.226 0 0 1-.19-.101A.51.51 0 0 1 0 .346.44.44 0 0 1 .06.088.204.204 0 0 1 .238 0C.373 0 .47.1.47.239.47.371.38.464.253.464A.191.191 0 0 1 .09.385c.001.173.057.269.158.269C.31.654.353.615.367.547h.088M.242.386C.327.386.38.327.38.232.38.143.32.078.239.078.157.078.095.146.095.237c0 .088.06.149.147.149z"/></symbol><use xlink:href="#a" transform="matrix(9.9626 0 0 -9.9626 21.247 63.774)" fill="#386af1"/><path d="M89.422 60.118a9.14 9.14 0 0 0-9.14-9.14 9.14 9.14 0 0 0-9.141 9.14 9.14 9.14 0 0 0 9.14 9.14 9.14 9.14 0 0 0 9.141-9.14zm-9.14 0" fill="#d7e1fc"/><path stroke-width=".399" stroke-miterlimit="10" fill="none" stroke="#386af1" d="M89.422 60.118a9.14 9.14 0 0 0-9.14-9.14 9.14 9.14 0 0 0-9.141 9.14 9.14 9.14 0 0 0 9.14 9.14 9.14 9.14 0 0 0 9.141-9.14zm-9.14 0"/><symbol id="b"><path d="M.441.732H.075L.022.346h.081c.041.049.075.066.13.066.095 0 .155-.065.155-.17C.388.14.329.078.233.078.156.078.109.117.088.197H0C.012.139.022.111.043.085A.236.236 0 0 1 .235 0c.143 0 .243.104.243.254C.478.394.385.49.249.49A.208.208 0 0 1 .118.447l.028.198h.295v.087z"/></symbol><use xlink:href="#b" transform="matrix(9.9626 0 0 -9.9626 77.86 63.682)" fill="#386af1"/><path d="M146.13 60.118a9.154 9.154 0 1 0-18.309 0 9.154 9.154 0 1 0 18.308 0zm-9.155 0" fill="#d7e1fc"/><path stroke-width=".399" stroke-miterlimit="10" fill="none" stroke="#386af1" d="M146.13 60.118a9.154 9.154 0 1 0-18.309 0 9.154 9.154 0 1 0 18.308 0zm-9.155 0"/><symbol id="c"><path d="M.299.17V0h.088v.17h.105v.079H.387v.46H.322L0 .263V.17h.299m0 .079H.077l.222.31v-.31z"/></symbol><use xlink:href="#c" transform="matrix(9.9626 0 0 -9.9626 134.484 63.627)" fill="#386af1"/><path d="M202.885 60.118a9.216 9.216 0 0 0-9.216-9.216 9.216 9.216 0 0 0-9.216 9.216 9.216 9.216 0 0 0 9.216 9.216 9.216 9.216 0 0 0 9.216-9.216zm-9.216 0" fill="#d7e1fc"/><path stroke-width=".399" stroke-miterlimit="10" fill="none" stroke="#386af1" d="M202.885 60.118a9.216 9.216 0 0 0-9.216-9.216 9.216 9.216 0 0 0-9.216 9.216 9.216 9.216 0 0 0 9.216 9.216 9.216 9.216 0 0 0 9.216-9.216zm-9.216 0"/><symbol id="d"><path d="M.189.348H.2l.037.001C.334.349.384.305.384.22.384.131.329.078.237.078.141.078.094.126.088.229H0A.3.3 0 0 1 .031.103C.067.035.137 0 .234 0c.146 0 .24.087.24.221 0 .09-.035.14-.12.169a.146.146 0 0 1 .099.147c0 .122-.081.195-.216.195C.094.732.018.654.015.503h.088a.199.199 0 0 0 .016.089c.02.039.064.063.119.063.078 0 .125-.046.125-.121 0-.05-.018-.08-.057-.096A.322.322 0 0 0 .189.423V.348z"/></symbol><use xlink:href="#d" transform="matrix(9.9626 0 0 -9.9626 191.217 63.774)" fill="#386af1"/><path d="M259.517 60.118a9.154 9.154 0 0 0-9.154-9.154 9.154 9.154 0 0 0-9.154 9.154 9.154 9.154 0 0 0 9.154 9.154 9.154 9.154 0 0 0 9.154-9.154zm-9.154 0" fill="#d7e1fc"/><path stroke-width=".399" stroke-miterlimit="10" fill="none" stroke="#386af1" d="M259.517 60.118a9.154 9.154 0 0 0-9.154-9.154 9.154 9.154 0 0 0-9.154 9.154 9.154 9.154 0 0 0 9.154 9.154 9.154 9.154 0 0 0 9.154-9.154zm-9.154 0"/><symbol id="e"><path d="M.472.087H.099C.108.145.14.182.227.233l.1.054c.099.054.15.127.15.214a.204.204 0 0 1-.066.152.227.227 0 0 1-.161.056C.16.709.093.677.054.617A.276.276 0 0 1 .016.463h.088a.245.245 0 0 0 .021.1.135.135 0 0 0 .122.069c.08 0 .14-.057.14-.133C.387.443.354.395.291.359L.199.307C.051.223.008.156 0 0h.472v.087z"/></symbol><use xlink:href="#e" transform="matrix(9.9626 0 0 -9.9626 247.929 63.627)" fill="#386af1"/><path d="M316.21 60.118a9.154 9.154 0 0 0-9.154-9.154 9.154 9.154 0 0 0-9.154 9.154 9.154 9.154 0 0 0 9.154 9.154 9.154 9.154 0 0 0 9.154-9.154zm-9.154 0" fill="#d7e1fc"/><path stroke-width=".399" stroke-miterlimit="10" fill="none" stroke="#386af1" d="M316.21 60.118a9.154 9.154 0 0 0-9.154-9.154 9.154 9.154 0 0 0-9.154 9.154 9.154 9.154 0 0 0 9.154 9.154 9.154 9.154 0 0 0 9.154-9.154zm-9.154 0"/><symbol id="f"><path d="M.157.505V0h.088v.709H.187C.156.6.136.585 0 .568V.505h.157z"/></symbol><use xlink:href="#f" transform="matrix(9.9626 0 0 -9.9626 305.3 63.627)" fill="#386af1"/><path d="M372.966 60.118a9.216 9.216 0 0 0-9.216-9.216 9.216 9.216 0 0 0-9.216 9.216 9.216 9.216 0 0 0 9.216 9.216 9.216 9.216 0 0 0 9.216-9.216zm-9.216 0" fill="#d7e1fc"/><path stroke-width=".399" stroke-miterlimit="10" fill="none" stroke="#386af1" d="M372.966 60.118a9.216 9.216 0 0 0-9.216-9.216 9.216 9.216 0 0 0-9.216 9.216 9.216 9.216 0 0 0 9.216 9.216 9.216 9.216 0 0 0 9.216-9.216zm-9.216 0"/><symbol id="g"><path d="M.232.732A.202.202 0 0 1 .069.654C.023.592 0 .497 0 .366 0 .127.08 0 .232 0c.15 0 .232.127.232.36 0 .138-.022.23-.069.294a.198.198 0 0 1-.163.078m0-.078C.327.654.374.558.374.368.374.167.328.073.23.073.137.073.09.171.09.365c0 .194.047.289.142.289z"/></symbol><use xlink:href="#g" transform="matrix(9.9626 0 0 -9.9626 361.404 63.774)" fill="#386af1"/><path stroke-width=".399" stroke-miterlimit="10" fill="none" stroke="#e05048" d="M33.003 60.118h29.534"/><path d="m70.12 60.118-7.483-1.925v3.85z" fill="#e05048"/><path stroke-width=".399" stroke-miterlimit="10" fill="none" stroke="#e05048" d="m70.12 60.118-7.483-1.925v3.85z"/><path d="M56.94 60.118a4.968 4.968 0 1 0-9.935 0 4.968 4.968 0 0 0 9.935 0zm-4.968 0" fill="#f8dcda"/><path stroke-width=".399" stroke-miterlimit="10" fill="none" stroke="#e05048" d="M56.94 60.118a4.968 4.968 0 1 0-9.935 0 4.968 4.968 0 0 0 9.935 0zm-4.968 0"/><use xlink:href="#f" transform="matrix(7.9701 0 0 -7.9701 50.57 62.925)" fill="#e05048"/><path stroke-width=".399" stroke-miterlimit="10" fill="none" stroke="#e05048" d="M89.622 60.118h29.596"/><path d="m126.8 60.118-7.483-1.925v3.85z" fill="#e05048"/><path stroke-width=".399" stroke-miterlimit="10" fill="none" stroke="#e05048" d="m126.8 60.118-7.483-1.925v3.85z"/><path d="M113.59 60.118a4.968 4.968 0 1 0-9.936 0 4.968 4.968 0 0 0 9.936 0zm-4.968 0" fill="#f8dcda"/><path stroke-width=".399" stroke-miterlimit="10" fill="none" stroke="#e05048" d="M113.59 60.118a4.968 4.968 0 1 0-9.936 0 4.968 4.968 0 0 0 9.936 0zm-4.968 0"/><use xlink:href="#f" transform="matrix(7.9701 0 0 -7.9701 107.218 62.925)" fill="#e05048"/><path stroke-width=".399" stroke-miterlimit="10" fill="none" stroke="#e05048" d="M146.329 60.118h29.52"/><path d="m183.432 60.118-7.483-1.925v3.85z" fill="#e05048"/><path stroke-width=".399" stroke-miterlimit="10" fill="none" stroke="#e05048" d="m183.432 60.118-7.483-1.925v3.85z"/><path d="M170.26 60.118a4.968 4.968 0 1 0-9.937 0 4.968 4.968 0 0 0 9.936 0zm-4.969 0" fill="#f8dcda"/><path stroke-width=".399" stroke-miterlimit="10" fill="none" stroke="#e05048" d="M170.26 60.118a4.968 4.968 0 1 0-9.937 0 4.968 4.968 0 0 0 9.936 0zm-4.969 0"/><use xlink:href="#f" transform="matrix(7.9701 0 0 -7.9701 163.887 62.925)" fill="#e05048"/><path stroke-width=".399" stroke-miterlimit="10" fill="none" stroke="#e05048" d="M203.084 60.118h29.52"/><path d="m240.188 60.118-7.484-1.925v3.85z" fill="#e05048"/><path stroke-width=".399" stroke-miterlimit="10" fill="none" stroke="#e05048" d="m240.188 60.118-7.484-1.925v3.85z"/><path d="M227.015 60.118a4.968 4.968 0 1 0-9.936 0 4.968 4.968 0 0 0 9.936 0zm-4.968 0" fill="#f8dcda"/><path stroke-width=".399" stroke-miterlimit="10" fill="none" stroke="#e05048" d="M227.015 60.118a4.968 4.968 0 1 0-9.936 0 4.968 4.968 0 0 0 9.936 0zm-4.968 0"/><use xlink:href="#f" transform="matrix(7.9701 0 0 -7.9701 220.642 62.925)" fill="#e05048"/><path stroke-width=".399" stroke-miterlimit="10" fill="none" stroke="#e05048" d="M259.716 60.118h29.583"/><path d="m296.881 60.118-7.483-1.925v3.85z" fill="#e05048"/><path stroke-width=".399" stroke-miterlimit="10" fill="none" stroke="#e05048" d="m296.881 60.118-7.483-1.925v3.85z"/><path d="M283.677 60.118a4.968 4.968 0 1 0-9.936 0 4.968 4.968 0 0 0 9.936 0zm-4.968 0" fill="#f8dcda"/><path stroke-width=".399" stroke-miterlimit="10" fill="none" stroke="#e05048" d="M283.677 60.118a4.968 4.968 0 1 0-9.936 0 4.968 4.968 0 0 0 9.936 0zm-4.968 0"/><use xlink:href="#f" transform="matrix(7.9701 0 0 -7.9701 277.304 62.925)" fill="#e05048"/><path stroke-width=".399" stroke-miterlimit="10" fill="none" stroke="#e05048" d="M259.716 60.118h29.583"/><path d="m296.881 60.118-7.483-1.925v3.85z" fill="#e05048"/><path stroke-width=".399" stroke-miterlimit="10" fill="none" stroke="#e05048" d="m296.881 60.118-7.483-1.925v3.85z"/><path d="M283.677 60.118a4.968 4.968 0 1 0-9.936 0 4.968 4.968 0 0 0 9.936 0zm-4.968 0" fill="#f8dcda"/><path stroke-width=".399" stroke-miterlimit="10" fill="none" stroke="#e05048" d="M283.677 60.118a4.968 4.968 0 1 0-9.936 0 4.968 4.968 0 0 0 9.936 0zm-4.968 0"/><use xlink:href="#f" transform="matrix(7.9701 0 0 -7.9701 277.304 62.925)" fill="#e05048"/><path stroke-width=".399" stroke-miterlimit="10" fill="none" stroke="#e05048" d="M316.41 60.118h29.52"/><path d="m353.513 60.118-7.483-1.925v3.85z" fill="#e05048"/><path stroke-width=".399" stroke-miterlimit="10" fill="none" stroke="#e05048" d="m353.513 60.118-7.483-1.925v3.85z"/><path d="M340.34 60.118a4.968 4.968 0 1 0-9.936 0 4.968 4.968 0 0 0 9.936 0zm-4.968 0" fill="#f8dcda"/><path stroke-width=".399" stroke-miterlimit="10" fill="none" stroke="#e05048" d="M340.34 60.118a4.968 4.968 0 1 0-9.936 0 4.968 4.968 0 0 0 9.936 0zm-4.968 0"/><use xlink:href="#f" transform="matrix(7.9701 0 0 -7.9701 333.966 62.925)" fill="#e05048"/><path stroke-width=".399" stroke-miterlimit="10" fill="none" stroke="#e05048" d="M31.742 64.826c51.933 29.983 101.84 29.983 146.495 4.202"/><path d="m184.804 65.236-7.443 2.075.962 1.667.962 1.667z" fill="#e05048"/><path stroke-width=".39899202" stroke-miterlimit="10" fill="none" stroke="#e05048" d="m184.804 65.236-7.443 2.075.962 1.667.962 1.667z"/><path d="M113.657 87.313a5.028 5.028 0 1 0-10.057 0 5.028 5.028 0 0 0 10.057 0zm-5.029 0" fill="#f8dcda"/><path stroke-width=".399" stroke-miterlimit="10" fill="none" stroke="#e05048" d="M113.657 87.313a5.028 5.028 0 1 0-10.057 0 5.028 5.028 0 0 0 10.057 0zm-5.029 0"/><use xlink:href="#d" transform="matrix(7.9701 0 0 -7.9701 106.667 90.237)" fill="#e05048"/><path stroke-width=".399" stroke-miterlimit="10" fill="none" stroke="#e05048" d="M88.37 64.788c51.971 30.009 101.918 30.01 146.614 4.208"/><path d="m241.551 65.205-7.443 2.074.962 1.667.963 1.667z" fill="#e05048"/><path stroke-width=".39898803000000005" stroke-miterlimit="10" fill="none" stroke="#e05048" d="m241.551 65.205-7.443 2.074.962 1.667.963 1.667z"/><path d="M170.343 87.296a5.028 5.028 0 1 0-10.056 0 5.028 5.028 0 0 0 10.056 0zm-5.028 0" fill="#f8dcda"/><path stroke-width=".399" stroke-miterlimit="10" fill="none" stroke="#e05048" d="M170.343 87.296a5.028 5.028 0 1 0-10.056 0 5.028 5.028 0 0 0 10.056 0zm-5.028 0"/><use xlink:href="#d" transform="matrix(7.96994 .0004 .0004 -7.96994 163.353 90.22)" fill="#e05048"/><path stroke-width=".399" stroke-miterlimit="10" fill="none" stroke="#e05048" d="M145.075 64.794C197.045 94.8 246.987 94.8 291.678 68.997"/><path d="m298.245 65.205-7.443 2.075.962 1.667.962 1.667z" fill="#e05048"/><path stroke-width=".39899202" stroke-miterlimit="10" fill="none" stroke="#e05048" d="m298.245 65.205-7.443 2.075.962 1.667.962 1.667z"/><path d="M227.044 87.298a5.028 5.028 0 1 0-10.057 0 5.028 5.028 0 0 0 10.057 0zm-5.028 0" fill="#f8dcda"/><path stroke-width=".399" stroke-miterlimit="10" fill="none" stroke="#e05048" d="M227.044 87.298a5.028 5.028 0 1 0-10.057 0 5.028 5.028 0 0 0 10.057 0zm-5.028 0"/><use xlink:href="#d" transform="matrix(7.9701 0 0 -7.9701 220.053 90.222)" fill="#e05048"/><path stroke-width=".399" stroke-miterlimit="10" fill="none" stroke="#e05048" d="M201.823 64.826c51.933 29.983 101.84 29.983 146.495 4.202"/><path d="m354.885 65.236-7.443 2.075.962 1.667.962 1.667z" fill="#e05048"/><path stroke-width=".39899202" stroke-miterlimit="10" fill="none" stroke="#e05048" d="m354.885 65.236-7.443 2.075.962 1.667.962 1.667z"/><path d="M283.738 87.313a5.028 5.028 0 1 0-10.057 0 5.028 5.028 0 0 0 10.057 0zm-5.029 0" fill="#f8dcda"/><path stroke-width=".399" stroke-miterlimit="10" fill="none" stroke="#e05048" d="M283.738 87.313a5.028 5.028 0 1 0-10.057 0 5.028 5.028 0 0 0 10.057 0zm-5.029 0"/><use xlink:href="#d" transform="matrix(7.9701 0 0 -7.9701 276.746 90.237)" fill="#e05048"/><path stroke-width=".399" stroke-miterlimit="10" fill="none" stroke="#e05048" d="M31.742 55.41c71.103-41.038 139.429-41.026 203.243-4.172"/><path d="m241.551 55.03-5.517-5.409-.963 1.667-.963 1.667z" fill="#e05048"/><path stroke-width=".39899202" stroke-miterlimit="10" fill="none" stroke="#e05048" d="m241.551 55.03-5.517-5.409-.963 1.667-.963 1.667z"/><path d="M141.974 24.64a4.968 4.968 0 1 0-9.936 0 4.968 4.968 0 0 0 9.936 0zm-4.968 0" fill="#f8dcda"/><path stroke-width=".399" stroke-miterlimit="10" fill="none" stroke="#e05048" d="M141.974 24.64a4.968 4.968 0 1 0-9.936 0 4.968 4.968 0 0 0 9.936 0zm-4.968 0"/><use xlink:href="#c" transform="matrix(7.96994 .00112 .00112 -7.96994 135.012 27.448)" fill="#e05048"/><path stroke-width=".399" stroke-miterlimit="10" fill="none" stroke="#e05048" d="M88.37 55.448c71.119-41.061 139.466-41.066 203.308-4.209"/><path d="m298.245 55.03-5.519-5.408-.962 1.667-.962 1.667z" fill="#e05048"/><path stroke-width=".39899202" stroke-miterlimit="10" fill="none" stroke="#e05048" d="m298.245 55.03-5.519-5.408-.962 1.667-.962 1.667z"/><path d="M198.63 24.65a4.968 4.968 0 1 0-9.935 0 4.968 4.968 0 0 0 9.936 0zm-4.967 0" fill="#f8dcda"/><path stroke-width=".399" stroke-miterlimit="10" fill="none" stroke="#e05048" d="M198.63 24.65a4.968 4.968 0 1 0-9.935 0 4.968 4.968 0 0 0 9.936 0zm-4.967 0"/><use xlink:href="#c" transform="matrix(7.96994 -.0004 -.0004 -7.96994 191.668 27.457)" fill="#e05048"/><path stroke-width=".399" stroke-miterlimit="10" fill="none" stroke="#e05048" d="M145.075 55.442c71.092-41.058 139.418-41.07 203.242-4.233"/><path d="m354.885 55-5.52-5.408-.961 1.667-.963 1.667z" fill="#e05048"/><path stroke-width=".39898803000000005" stroke-miterlimit="10" fill="none" stroke="#e05048" d="m354.885 55-5.52-5.408-.961 1.667-.963 1.667z"/><path d="M255.3 24.64a4.968 4.968 0 1 0-9.936 0 4.968 4.968 0 0 0 9.935 0zm-4.969 0" fill="#f8dcda"/><path stroke-width=".399" stroke-miterlimit="10" fill="none" stroke="#e05048" d="M255.3 24.64a4.968 4.968 0 1 0-9.936 0 4.968 4.968 0 0 0 9.935 0zm-4.969 0"/><use xlink:href="#c" transform="matrix(7.96994 -.00112 -.00112 -7.96994 248.337 27.448)" fill="#e05048"/></svg>