<svg xmlns="http://www.w3.org/2000/svg" xmlns:xlink="http://www.w3.org/1999/xlink" width="241.748" height="227.713" viewBox="0 0 181.311 170.785"><path d="M44.167 83.664h-25.81a3.985 3.985 0 0 0-3.985 3.985v8.086c0 2.2 1.785 3.985 3.985 3.985h25.81c2.2 0 3.985-1.784 3.985-3.985v-8.086c0-2.2-1.785-3.985-3.985-3.985zM14.372 99.72" fill="#d7e1fc"/><path stroke-width=".399" stroke-miterlimit="10" fill="none" stroke="#386af1" d="M44.167 83.664h-25.81a3.985 3.985 0 0 0-3.985 3.985v8.086c0 2.2 1.785 3.985 3.985 3.985h25.81c2.2 0 3.985-1.784 3.985-3.985v-8.086c0-2.2-1.785-3.985-3.985-3.985zM14.372 99.72"/><symbol id="a"><path d="M.455.547C.438.663.362.732.254.732a.226.226 0 0 1-.19-.101A.51.51 0 0 1 0 .346.44.44 0 0 1 .06.088.204.204 0 0 1 .238 0C.373 0 .47.1.47.239.47.371.38.464.253.464A.191.191 0 0 1 .09.385c.001.173.057.269.158.269C.31.654.353.615.367.547h.088M.242.386C.327.386.38.327.38.232.38.143.32.078.239.078.157.078.095.146.095.237c0 .088.06.149.147.149z"/></symbol><symbol id="b"><path d="M0 .251V.147h.06V.129C.06.06.047.04 0 .038V0c.07 0 .105.045.105.131v.12H0z"/></symbol><symbol id="c"><path d="M.015.185C.032.069.108 0 .216 0c.078 0 .149.038.19.101a.501.501 0 0 1 .065.285.44.44 0 0 1-.06.258.207.207 0 0 1-.179.088C.097.732 0 .632 0 .493 0 .361.09.268.218.268c.067 0 .116.024.162.079C.379.174.323.078.222.078.16.078.117.117.103.185H.015m.216.47c.082 0 .144-.068.144-.16A.142.142 0 0 0 .228.346C.143.346.09.405.09.5c0 .09.06.155.141.155z"/></symbol><symbol id="d"><path d="M.083.729H0V0h.083v.204l.081.08L.341 0h.103L.23.343l.182.181H.305L.083.302v.427z"/></symbol><symbol id="e"><path d="M.383.742V.666C.341.728.29.757.223.757.09.757 0 .641 0 .471 0 .385.023.315.066.265a.205.205 0 0 1 .15-.07c.066 0 .112.028.159.094V.262C.375.191.366.148.345.119.323.088.28.07.229.07a.155.155 0 0 0-.095.028C.115.113.107.127.102.158H.017C.026.059.103 0 .226 0c.078 0 .145.025.179.067.04.048.055.114.055.237v.438H.383M.232.68C.322.68.375.604.375.473.375.348.321.272.233.272.142.272.087.349.087.476c0 .126.056.204.145.204z"/></symbol><use xlink:href="#a" transform="matrix(9.9626 0 0 -9.9626 18.121 94.411)" fill="#386af1"/><use xlink:href="#b" transform="matrix(9.9626 0 0 -9.9626 24.099 95.647)" fill="#386af1"/><use xlink:href="#c" transform="matrix(9.9626 0 0 -9.9626 29.15 94.411)" fill="#386af1"/><use xlink:href="#d" transform="matrix(9.9626 0 0 -9.9626 34.888 94.182)" fill="#386af1"/><use xlink:href="#e" transform="matrix(9.9626 0 0 -9.9626 39.58 96.354)" fill="#386af1"/><path d="M157.554 26.97h-25.81a3.985 3.985 0 0 0-3.984 3.986v8.085a3.985 3.985 0 0 0 3.985 3.985h25.809c2.2 0 3.985-1.784 3.985-3.985v-8.085c0-2.201-1.784-3.986-3.985-3.986zM127.76 43.026" fill="#d7e1fc"/><path stroke-width=".399" stroke-miterlimit="10" fill="none" stroke="#386af1" d="M157.554 26.97h-25.81a3.985 3.985 0 0 0-3.984 3.986v8.085a3.985 3.985 0 0 0 3.985 3.985h25.809c2.2 0 3.985-1.784 3.985-3.985v-8.085c0-2.201-1.784-3.986-3.985-3.986zM127.76 43.026"/><symbol id="f"><path d="M.441.732H.075L.022.346h.081c.041.049.075.066.13.066.095 0 .155-.065.155-.17C.388.14.329.078.233.078.156.078.109.117.088.197H0C.012.139.022.111.043.085A.236.236 0 0 1 .235 0c.143 0 .243.104.243.254C.478.394.385.49.249.49A.208.208 0 0 1 .118.447l.028.198h.295v.087z"/></symbol><use xlink:href="#f" transform="matrix(9.9626 0 0 -9.9626 131.428 37.72)" fill="#386af1"/><use xlink:href="#b" transform="matrix(9.9626 0 0 -9.9626 137.485 38.955)" fill="#386af1"/><use xlink:href="#c" transform="matrix(9.9626 0 0 -9.9626 142.536 37.72)" fill="#386af1"/><use xlink:href="#d" transform="matrix(9.9626 0 0 -9.9626 148.274 37.49)" fill="#386af1"/><use xlink:href="#e" transform="matrix(9.9626 0 0 -9.9626 152.967 39.662)" fill="#386af1"/><path d="M157.554 140.358h-25.81a3.985 3.985 0 0 0-3.984 3.985v8.085c0 2.201 1.784 3.986 3.985 3.986h25.809c2.2 0 3.985-1.785 3.985-3.986v-8.085a3.985 3.985 0 0 0-3.985-3.985zm-29.794 16.056" fill="#d7e1fc"/><path stroke-width=".399" stroke-miterlimit="10" fill="none" stroke="#386af1" d="M157.554 140.358h-25.81a3.985 3.985 0 0 0-3.984 3.985v8.085c0 2.201 1.784 3.986 3.985 3.986h25.809c2.2 0 3.985-1.785 3.985-3.986v-8.085a3.985 3.985 0 0 0-3.985-3.985zm-29.794 16.056"/><use xlink:href="#f" transform="matrix(9.9626 0 0 -9.9626 131.428 151.104)" fill="#386af1"/><use xlink:href="#b" transform="matrix(9.9626 0 0 -9.9626 137.485 152.34)" fill="#386af1"/><use xlink:href="#a" transform="matrix(9.9626 0 0 -9.9626 142.586 151.104)" fill="#386af1"/><use xlink:href="#d" transform="matrix(9.9626 0 0 -9.9626 148.274 150.875)" fill="#386af1"/><use xlink:href="#e" transform="matrix(9.9626 0 0 -9.9626 152.967 153.047)" fill="#386af1"/><path stroke-width=".399" stroke-miterlimit="10" fill="none" stroke="#e05048" d="m48.35 91.692 72.377-51.802"/><path d="m126.892 35.476-7.205 2.79 1.12 1.566 1.12 1.565z" fill="#e05048"/><path stroke-width=".39898005000000003" stroke-miterlimit="10" fill="none" stroke="#e05048" d="m126.892 35.476-7.205 2.79 1.12 1.566 1.12 1.565z"/><path d="M112.053 59.014H63.859a3.985 3.985 0 0 0-3.986 3.985v.692c0 2.201 1.785 3.985 3.986 3.985h48.194c2.2 0 3.985-1.784 3.985-3.985V63c0-2.2-1.784-3.985-3.985-3.985zm-52.18 8.662" fill="#f8dcda"/><path stroke-width=".399" stroke-miterlimit="10" fill="none" stroke="#e05048" d="M112.053 59.014H63.859a3.985 3.985 0 0 0-3.986 3.985v.692c0 2.201 1.785 3.985 3.986 3.985h48.194c2.2 0 3.985-1.784 3.985-3.985V63c0-2.2-1.784-3.985-3.985-3.985zm-52.18 8.662"/><symbol id="g"><path d="M.57.729H.482V.133L.101.729H0V0h.088v.591L.465 0H.57v.729z"/></symbol><symbol id="h"><path d="M.473.257c0 .08-.006.128-.021.167A.22.22 0 0 1 .24.562C.094.562 0 .45 0 .278S.091 0 .238 0c.12 0 .203.068.224.182H.378C.355.113.308.077.241.077a.145.145 0 0 0-.126.068c-.02.03-.027.06-.028.112h.386M.089.325c.007.097.066.16.15.16.082 0 .145-.068.145-.154L.383.325H.089z"/></symbol><symbol id="i"><path d="M0 0h.084v.273A.192.192 0 0 1 .245.195c.135 0 .224.109.224.276 0 .176-.086.286-.225.286A.189.189 0 0 1 .077.663v.079H0V0m.23.679C.322.679.382.598.382.473c0-.119-.061-.2-.152-.2-.088 0-.146.08-.146.203 0 .123.058.203.146.203z"/></symbol><symbol id="j"><path d="M.493.072.475.07C.446.07.43.085.43.111v.308C.43.512.362.562.233.562.157.562.094.54.059.501.035.474.025.444.023.392h.084C.114.456.152.485.23.485.305.485.347.457.347.407V.385C.347.35.326.335.26.327A.598.598 0 0 1 .092.295C.031.27 0 .223 0 .155 0 .06.066 0 .172 0 .238 0 .291.023.35.077.356.024.382 0 .436 0c.017 0 .03.002.057.009v.063M.347.188C.347.16.339.143.314.12A.177.177 0 0 0 .19.073C.125.073.087.104.087.157c0 .055.037.083.126.096a.415.415 0 0 1 .134.029V.188z"/></symbol><symbol id="k"><path d="M.404.401C.403.504.335.562.214.562.092.562.013.499.013.402.013.32.055.281.179.251L.257.232C.315.218.338.197.338.159.338.11.289.077.216.077.171.077.133.09.112.112.099.127.093.142.088.179H0C.004.058.072 0 .209 0c.132 0 .216.065.216.166 0 .078-.044.121-.148.146l-.08.019C.129.347.1.369.1.406c0 .048.043.079.111.079.067 0 .103-.029.105-.084h.088z"/></symbol><symbol id="l"><path d="M.24.524H.153v.082c0 .035.02.053.058.053L.24.658v.069a.198.198 0 0 1-.047.005C.116.732.07.688.07.613V.524H0V.456h.07V0h.083v.456H.24v.068z"/></symbol><symbol id="m"><path d="M.44.371a.216.216 0 0 1-.035.113.21.21 0 0 1-.172.078C.092.562 0 .45 0 .276 0 .107.09 0 .232 0c.125 0 .204.075.214.203H.362C.348.119.305.077.234.077.142.077.087.152.087.276c0 .131.054.209.145.209.07 0 .114-.041.124-.114H.44z"/></symbol><symbol id="n"><path d="M.24.547H.154v.144H.071V.547H0V.479h.071V.083C.071.03.107 0 .172 0c.02 0 .04.002.068.007v.07A.154.154 0 0 0 .2.073C.164.073.154.083.154.12v.359H.24v.068z"/></symbol><symbol id="o"><path d="M0 .524V0h.084v.272c0 .075.019.124.059.153.026.019.051.025.109.026v.085A.2.2 0 0 1 .22.539C.166.539.125.507.077.429v.095H0z"/></symbol><symbol id="p"><path d="M.084.729H0V0h.084v.729z"/></symbol><symbol id="q"><path d="M0 .232V.128h.048C.049.07.035.043 0 .038V0c.06.005.093.051.093.131v.101H0z"/></symbol><symbol id="r"><path d="M.236.562C.089.562 0 .457 0 .281 0 .105.088 0 .237 0c.147 0 .237.105.237.277 0 .181-.087.285-.238.285M.237.485c.094 0 .15-.077.15-.207C.387.155.329.077.237.077c-.093 0-.15.077-.15.204 0 .126.057.204.15.204z"/></symbol><symbol id="s"><path d="M0 .752V.023h.075V.09A.184.184 0 0 1 .241 0c.138 0 .228.113.228.287 0 .17-.086.275-.224.275A.179.179 0 0 1 .083.476v.276H0M.229.484C.322.484.382.403.382.278c0-.119-.062-.2-.153-.2-.088 0-.146.08-.146.203 0 .123.058.203.146.203z"/></symbol><symbol id="t"><path d="M.088.742v-.6C.088.09.071.073.02.073L0 .074V.003C.01.001.015 0 .028 0c.094 0 .143.038.143.109v.633H.088m.083.205H.088V.842h.083v.105z"/></symbol><use xlink:href="#g" transform="matrix(4.9813 0 0 -4.9813 62.245 64.645)" fill="#e05048"/><use xlink:href="#h" transform="matrix(4.9813 0 0 -4.9813 65.662 64.76)" fill="#e05048"/><use xlink:href="#i" transform="matrix(4.9813 0 0 -4.9813 69.886 65.73)" fill="#e05048"/><use xlink:href="#j" transform="matrix(4.9813 0 0 -4.9813 72.596 64.76)" fill="#e05048"/><use xlink:href="#k" transform="matrix(4.9813 0 0 -4.9813 75.325 64.76)" fill="#e05048"/><use xlink:href="#j" transform="matrix(4.9813 0 0 -4.9813 79.24 64.76)" fill="#e05048"/><use xlink:href="#l" transform="matrix(4.9813 0 0 -4.9813 81.89 64.645)" fill="#e05048"/><use xlink:href="#l" transform="matrix(4.9813 0 0 -4.9813 83.276 64.645)" fill="#e05048"/><use xlink:href="#h" transform="matrix(4.9813 0 0 -4.9813 84.62 64.76)" fill="#e05048"/><use xlink:href="#m" transform="matrix(4.9813 0 0 -4.9813 87.345 64.76)" fill="#e05048"/><use xlink:href="#n" transform="matrix(4.9813 0 0 -4.9813 89.751 64.76)" fill="#e05048"/><use xlink:href="#h" transform="matrix(4.9813 0 0 -4.9813 91.266 64.76)" fill="#e05048"/><use xlink:href="#o" transform="matrix(4.9813 0 0 -4.9813 94.18 64.645)" fill="#e05048"/><use xlink:href="#p" transform="matrix(4.9813 0 0 -4.9813 97.218 64.645)" fill="#e05048"/><use xlink:href="#q" transform="matrix(4.9813 0 0 -4.9813 98.304 62.17)" fill="#e05048"/><use xlink:href="#r" transform="matrix(4.9813 0 0 -4.9813 99.27 64.76)" fill="#e05048"/><use xlink:href="#s" transform="matrix(4.9813 0 0 -4.9813 102.13 64.76)" fill="#e05048"/><use xlink:href="#t" transform="matrix(4.9813 0 0 -4.9813 104.54 65.73)" fill="#e05048"/><use xlink:href="#h" transform="matrix(4.9813 0 0 -4.9813 105.936 64.76)" fill="#e05048"/><use xlink:href="#n" transform="matrix(4.9813 0 0 -4.9813 108.576 64.76)" fill="#e05048"/><use xlink:href="#a" transform="matrix(4.9813 0 0 -4.9813 111.49 64.76)" fill="#e05048"/><path stroke-width=".399" stroke-miterlimit="10" fill="none" stroke="#e05048" d="m48.35 91.692 72.377 51.802"/><path d="m126.892 147.908-4.964-5.92-1.12 1.564-1.12 1.566z" fill="#e05048"/><path stroke-width=".39898005000000003" stroke-miterlimit="10" fill="none" stroke="#e05048" d="m126.892 147.908-4.964-5.92-1.12 1.564-1.12 1.566z"/><path d="M103.746 115.708H72.165a3.985 3.985 0 0 0-3.985 3.985v.692c0 2.2 1.784 3.985 3.985 3.985h31.581a3.985 3.985 0 0 0 3.985-3.985v-.692c0-2.201-1.784-3.985-3.985-3.985zM68.18 124.37" fill="#f8dcda"/><path stroke-width=".399" stroke-miterlimit="10" fill="none" stroke="#e05048" d="M103.746 115.708H72.165a3.985 3.985 0 0 0-3.985 3.985v.692c0 2.2 1.784 3.985 3.985 3.985h31.581a3.985 3.985 0 0 0 3.985-3.985v-.692c0-2.201-1.784-3.985-3.985-3.985zM68.18 124.37"/><symbol id="u"><path d="M.457.219.532 0h.104L.38.729H.26L0 0h.099l.077.219h.281M.431.297H.199l.12.332.112-.332z"/></symbol><use xlink:href="#u" transform="matrix(4.9813 0 0 -4.9813 70.257 121.338)" fill="#e05048"/><use xlink:href="#l" transform="matrix(4.9813 0 0 -4.9813 73.584 121.338)" fill="#e05048"/><use xlink:href="#l" transform="matrix(4.9813 0 0 -4.9813 74.969 121.338)" fill="#e05048"/><use xlink:href="#h" transform="matrix(4.9813 0 0 -4.9813 76.314 121.453)" fill="#e05048"/><use xlink:href="#m" transform="matrix(4.9813 0 0 -4.9813 79.039 121.453)" fill="#e05048"/><use xlink:href="#n" transform="matrix(4.9813 0 0 -4.9813 81.445 121.453)" fill="#e05048"/><use xlink:href="#h" transform="matrix(4.9813 0 0 -4.9813 82.959 121.453)" fill="#e05048"/><use xlink:href="#o" transform="matrix(4.9813 0 0 -4.9813 85.873 121.338)" fill="#e05048"/><use xlink:href="#p" transform="matrix(4.9813 0 0 -4.9813 88.912 121.338)" fill="#e05048"/><use xlink:href="#q" transform="matrix(4.9813 0 0 -4.9813 89.998 118.862)" fill="#e05048"/><use xlink:href="#r" transform="matrix(4.9813 0 0 -4.9813 90.964 121.453)" fill="#e05048"/><use xlink:href="#s" transform="matrix(4.9813 0 0 -4.9813 93.823 121.453)" fill="#e05048"/><use xlink:href="#t" transform="matrix(4.9813 0 0 -4.9813 96.234 122.424)" fill="#e05048"/><use xlink:href="#h" transform="matrix(4.9813 0 0 -4.9813 97.629 121.453)" fill="#e05048"/><use xlink:href="#n" transform="matrix(4.9813 0 0 -4.9813 100.269 121.453)" fill="#e05048"/><use xlink:href="#a" transform="matrix(4.9813 0 0 -4.9813 103.183 121.453)" fill="#e05048"/><path d="M166.766 26.771a5.028 5.028 0 1 0-10.056 0 5.028 5.028 0 0 0 10.056 0zm-5.028 0" fill="#e1f4e2"/><path stroke-width=".747" stroke-miterlimit="10" fill="none" stroke="#6cc871" d="M166.766 26.771a5.028 5.028 0 1 0-10.056 0 5.028 5.028 0 0 0 10.056 0zm-5.028 0"/><use xlink:href="#c" transform="matrix(7.9701 0 0 -7.9701 159.824 29.697)" fill="#6cc871"/><path d="M166.696 140.158a4.957 4.957 0 1 0-9.915 0 4.957 4.957 0 0 0 9.915 0zm-4.958 0" fill="#e1f4e2"/><path stroke-width=".747" stroke-miterlimit="10" fill="none" stroke="#6cc871" d="M166.696 140.158a4.957 4.957 0 1 0-9.915 0 4.957 4.957 0 0 0 9.915 0zm-4.958 0"/><use xlink:href="#f" transform="matrix(7.9701 0 0 -7.9701 159.8 143.01)" fill="#6cc871"/><path d="M62.429 77.806H34.273a3.985 3.985 0 0 0-3.985 3.985v3.348c0 2.201 1.784 3.985 3.985 3.985H62.43c2.2 0 3.985-1.784 3.985-3.985v-3.348c0-2.201-1.785-3.985-3.985-3.985zm-32.14 11.318" fill="#e1f4e2"/><path stroke-width=".747" stroke-miterlimit="10" fill="none" stroke="#6cc871" d="M62.429 77.806H34.273a3.985 3.985 0 0 0-3.985 3.985v3.348c0 2.201 1.784 3.985 3.985 3.985H62.43c2.2 0 3.985-1.784 3.985-3.985v-3.348c0-2.201-1.785-3.985-3.985-3.985zm-32.14 11.318"/><symbol id="v"><path d="M0 .524V0h.084v.329c0 .076.055.137.123.137.062 0 .097-.038.097-.105V0h.084v.329c0 .076.055.137.123.137.061 0 .097-.039.097-.105V0h.084v.393C.692.487.638.539.54.539.47.539.428.518.379.459.348.515.306.539.238.539.168.539.122.513.077.45v.074H0z"/></symbol><symbol id="w"><path d="m.275.271.176.253H.357L.231.334l-.126.19H.01L.185.267 0 0h.095l.133.201L.359 0h.097L.275.271z"/></symbol><symbol id="x"><path d="M.163.941A.82.82 0 0 1 0 .471.82.82 0 0 1 .163 0h.055a.915.915 0 0 0-.137.471c0 .159.049.328.137.47H.163z"/></symbol><symbol id="y"><path d="M.354.396c.073.044.097.08.097.147 0 .111-.087.189-.213.189C.113.732.025.654.025.543c0-.066.024-.102.096-.147C.04.357 0 .298 0 .22 0 .09.098 0 .238 0c.14 0 .238.09.238.219 0 .079-.04.138-.122.177M.238.654C.313.654.361.61.361.541c0-.066-.049-.11-.123-.11S.115.475.115.542c0 .068.049.112.123.112m0-.297C.326.357.386.301.386.218c0-.084-.06-.14-.15-.14C.15.078.09.135.09.218c0 .083.06.139.148.139z"/></symbol><symbol id="z"><path d="M.055 0a.82.82 0 0 1 .163.47.82.82 0 0 1-.163.471H0A.915.915 0 0 0 .137.47.912.912 0 0 0 0 0h.055z"/></symbol><symbol id="A"><path d="M.484.242H0v-.07h.484v.07m0-.172H0V0h.484v.07z"/></symbol><use xlink:href="#v" transform="matrix(4.9813 0 0 -4.9813 33.958 84.765)" fill="#6cc871"/><use xlink:href="#j" transform="matrix(4.9813 0 0 -4.9813 37.968 84.88)" fill="#6cc871"/><use xlink:href="#w" transform="matrix(4.9813 0 0 -4.9813 40.613 84.765)" fill="#6cc871"/><use xlink:href="#x" transform="matrix(4.9813 0 0 -4.9813 43.382 85.821)" fill="#6cc871"/><use xlink:href="#c" transform="matrix(4.9813 0 0 -4.9813 44.867 84.88)" fill="#6cc871"/><use xlink:href="#b" transform="matrix(4.9813 0 0 -4.9813 47.88 85.497)" fill="#6cc871"/><use xlink:href="#y" transform="matrix(4.9813 0 0 -4.9813 50.401 84.88)" fill="#6cc871"/><use xlink:href="#z" transform="matrix(4.9813 0 0 -4.9813 53.176 85.821)" fill="#6cc871"/><use xlink:href="#A" transform="matrix(4.9813 0 0 -4.9813 56.279 84.212)" fill="#6cc871"/><symbol id="B"><path d="M.387.409c.024.013.035.02.046.03.029.027.046.07.046.116 0 .111-.096.192-.227.192C.12.747.024.666.024.554c0-.068.028-.111.092-.145C.034.365 0 .311 0 .227 0 .093.103 0 .252 0 .4 0 .503.093.503.227c0 .084-.034.138-.116.182M.253.634C.315.634.358.596.358.541.358.487.314.448.253.448.191.448.147.487.147.542c0 .054.043.092.106.092M.251.353C.32.353.363.307.363.233.363.165.319.12.251.12S.14.165.14.235c0 .072.044.118.111.118z"/></symbol><use xlink:href="#B" transform="matrix(4.9813 0 0 -4.9813 60.433 84.88)" fill="#6cc871"/><path stroke-width=".747" stroke-miterlimit="10" fill="none" stroke="#6cc871" d="M156.484 25.516c-44.65-10.97-86.964 9.849-102.163 44.307"/><path d="m51.586 76.023 4.26-5.324-1.6-.706-1.6-.705z" fill="#6cc871"/><path stroke-width=".74696265" stroke-miterlimit="10" fill="none" stroke="#6cc871" d="m51.586 76.023 4.26-5.324-1.6-.706-1.6-.705z"/><path d="M119.755 26.42H68.123a3.985 3.985 0 0 0-3.985 3.984v2.362c0 2.201 1.784 3.985 3.985 3.985h51.632c2.201 0 3.985-1.784 3.985-3.985v-2.362c0-2.2-1.784-3.985-3.985-3.985zM64.138 36.75" fill="#e1f4e2"/><path stroke-width=".747" stroke-miterlimit="10" fill="none" stroke="#6cc871" d="M119.755 26.42H68.123a3.985 3.985 0 0 0-3.985 3.984v2.362c0 2.201 1.784 3.985 3.985 3.985h51.632c2.201 0 3.985-1.784 3.985-3.985v-2.362c0-2.2-1.784-3.985-3.985-3.985zM64.138 36.75"/><symbol id="C"><path d="m.362 0 .253.729H.516L.314.112.1.729H0L.262 0h.1z"/></symbol><symbol id="D"><path d="M.417.023v.524H.334V.25C.334.143.278.073.191.073c-.066 0-.108.04-.108.103v.371H0V.143C0 .056.065 0 .167 0c.077 0 .126.027.175.096V.023h.075z"/></symbol><symbol id="E"><path d="M.484.277H.277v.207h-.07V.277H0v-.07h.207V0h.07v.207h.207v.07z"/></symbol><symbol id="F"><path d="M.232.732A.202.202 0 0 1 .069.654C.023.592 0 .497 0 .366 0 .127.08 0 .232 0c.15 0 .232.127.232.36 0 .138-.022.23-.069.294a.198.198 0 0 1-.163.078m0-.078C.327.654.374.558.374.368.374.167.328.073.23.073.137.073.09.171.09.365c0 .194.047.289.142.289z"/></symbol><use xlink:href="#C" transform="matrix(4.9813 0 0 -4.9813 67.607 33.339)" fill="#6cc871"/><use xlink:href="#j" transform="matrix(4.9813 0 0 -4.9813 70.641 33.454)" fill="#6cc871"/><use xlink:href="#p" transform="matrix(4.9813 0 0 -4.9813 73.54 33.339)" fill="#6cc871"/><use xlink:href="#h" transform="matrix(4.9813 0 0 -4.9813 74.507 33.454)" fill="#6cc871"/><use xlink:href="#D" transform="matrix(4.9813 0 0 -4.9813 77.4 33.454)" fill="#6cc871"/><use xlink:href="#o" transform="matrix(4.9813 0 0 -4.9813 80.19 33.339)" fill="#6cc871"/><use xlink:href="#n" transform="matrix(4.9813 0 0 -4.9813 82.96 33.454)" fill="#6cc871"/><use xlink:href="#r" transform="matrix(4.9813 0 0 -4.9813 84.454 33.454)" fill="#6cc871"/><use xlink:href="#n" transform="matrix(4.9813 0 0 -4.9813 87.114 33.454)" fill="#6cc871"/><use xlink:href="#j" transform="matrix(4.9813 0 0 -4.9813 88.638 33.454)" fill="#6cc871"/><use xlink:href="#p" transform="matrix(4.9813 0 0 -4.9813 91.538 33.339)" fill="#6cc871"/><use xlink:href="#h" transform="matrix(4.9813 0 0 -4.9813 92.504 33.454)" fill="#6cc871"/><use xlink:href="#A" transform="matrix(4.9813 0 0 -4.9813 96.708 32.786)" fill="#6cc871"/><use xlink:href="#c" transform="matrix(4.9813 0 0 -4.9813 100.942 33.454)" fill="#6cc871"/><use xlink:href="#E" transform="matrix(4.9813 0 0 -4.9813 105.156 33.389)" fill="#6cc871"/><use xlink:href="#F" transform="matrix(4.9813 0 0 -4.9813 109.415 33.454)" fill="#6cc871"/><use xlink:href="#A" transform="matrix(4.9813 0 0 -4.9813 113.605 32.786)" fill="#6cc871"/><symbol id="G"><path d="M.01.189C.013.08.105 0 .227 0a.22.22 0 0 1 .202.11c.037.063.059.17.059.284a.475.475 0 0 1-.049.238.224.224 0 0 1-.2.116C.097.748 0 .646 0 .498 0 .352.086.252.212.252c.036 0 .07.01.092.026a.248.248 0 0 1 .044.044C.348.187.31.12.231.12.182.12.148.147.145.189H.01m.225.445c.068 0 .11-.053.11-.136C.345.42.301.368.237.368S.133.419.133.5c0 .082.04.134.102.134z"/></symbol><use xlink:href="#G" transform="matrix(4.9813 0 0 -4.9813 117.788 33.459)" fill="#6cc871"/><path stroke-width=".747" stroke-miterlimit="10" fill="none" stroke="#6cc871" d="M156.553 141.397c-44.674 10.994-87.004-9.812-102.23-44.291"/><path d="m51.586 90.907 1.062 6.734 1.6-.706 1.6-.706z" fill="#6cc871"/><path stroke-width=".74697012" stroke-miterlimit="10" fill="none" stroke="#6cc871" d="m51.586 90.907 1.062 6.734 1.6-.706 1.6-.706z"/><path d="M119.79 130.187H68.16a3.985 3.985 0 0 0-3.985 3.985v2.362c0 2.2 1.784 3.985 3.985 3.985h51.632c2.2 0 3.985-1.784 3.985-3.985v-2.362c0-2.201-1.784-3.985-3.985-3.985zm-55.616 10.332" fill="#e1f4e2"/><path stroke-width=".747" stroke-miterlimit="10" fill="none" stroke="#6cc871" d="M119.79 130.187H68.16a3.985 3.985 0 0 0-3.985 3.985v2.362c0 2.2 1.784 3.985 3.985 3.985h51.632c2.2 0 3.985-1.784 3.985-3.985v-2.362c0-2.201-1.784-3.985-3.985-3.985zm-55.616 10.332"/><symbol id="H"><path d="M.189.348H.2l.037.001C.334.349.384.305.384.22.384.131.329.078.237.078.141.078.094.126.088.229H0A.3.3 0 0 1 .031.103C.067.035.137 0 .234 0c.146 0 .24.087.24.221 0 .09-.035.14-.12.169a.146.146 0 0 1 .099.147c0 .122-.081.195-.216.195C.094.732.018.654.015.503h.088a.199.199 0 0 0 .016.089c.02.039.064.063.119.063.078 0 .125-.046.125-.121 0-.05-.018-.08-.057-.096A.322.322 0 0 0 .189.423V.348z"/></symbol><use xlink:href="#C" transform="matrix(4.9813 0 0 -4.9813 67.643 137.106)" fill="#6cc871"/><use xlink:href="#j" transform="matrix(4.9813 0 0 -4.9813 70.677 137.22)" fill="#6cc871"/><use xlink:href="#p" transform="matrix(4.9813 0 0 -4.9813 73.576 137.106)" fill="#6cc871"/><use xlink:href="#h" transform="matrix(4.9813 0 0 -4.9813 74.543 137.22)" fill="#6cc871"/><use xlink:href="#D" transform="matrix(4.9813 0 0 -4.9813 77.437 137.22)" fill="#6cc871"/><use xlink:href="#o" transform="matrix(4.9813 0 0 -4.9813 80.226 137.106)" fill="#6cc871"/><use xlink:href="#n" transform="matrix(4.9813 0 0 -4.9813 82.996 137.22)" fill="#6cc871"/><use xlink:href="#r" transform="matrix(4.9813 0 0 -4.9813 84.49 137.22)" fill="#6cc871"/><use xlink:href="#n" transform="matrix(4.9813 0 0 -4.9813 87.15 137.22)" fill="#6cc871"/><use xlink:href="#j" transform="matrix(4.9813 0 0 -4.9813 88.674 137.22)" fill="#6cc871"/><use xlink:href="#p" transform="matrix(4.9813 0 0 -4.9813 91.574 137.106)" fill="#6cc871"/><use xlink:href="#h" transform="matrix(4.9813 0 0 -4.9813 92.54 137.22)" fill="#6cc871"/><use xlink:href="#A" transform="matrix(4.9813 0 0 -4.9813 96.744 136.553)" fill="#6cc871"/><use xlink:href="#f" transform="matrix(4.9813 0 0 -4.9813 100.963 137.22)" fill="#6cc871"/><use xlink:href="#E" transform="matrix(4.9813 0 0 -4.9813 105.192 137.156)" fill="#6cc871"/><use xlink:href="#H" transform="matrix(4.9813 0 0 -4.9813 109.397 137.22)" fill="#6cc871"/><use xlink:href="#A" transform="matrix(4.9813 0 0 -4.9813 113.64 136.553)" fill="#6cc871"/><use xlink:href="#B" transform="matrix(4.9813 0 0 -4.9813 117.795 137.22)" fill="#6cc871"/></svg>